<svg width="270" height="222" viewBox="0 0 270 222" fill="none" xmlns="http://www.w3.org/2000/svg">
<g filter="url(#filter0_d_174_153)">
<rect x="7" y="5" width="256" height="208" rx="16" fill="url(#paint0_linear_174_153)"/>
<rect x="11.75" y="9.75" width="246.5" height="198.5" rx="13.25" stroke="#EBF0FF" stroke-width="1.5"/>
<g clip-path="url(#clip0_174_153)">
<mask id="mask0_174_153" style="mask-type:alpha" maskUnits="userSpaceOnUse" x="-23" y="27" width="127" height="86">
<path d="M15.625 48.25V48.3625H15.6716L15.7045 48.3295L15.625 48.25ZM20.875 43V42.8875H20.8284L20.7955 42.9205L20.875 43ZM33.625 43V43.1125H33.6652L33.6962 43.0871L33.625 43ZM37.75 39.625V39.5125H37.7098L37.6788 39.5379L37.75 39.625ZM40.9 39.625C40.9 39.9564 41.1686 40.225 41.5 40.225C41.8314 40.225 42.1 39.9564 42.1 39.625C42.1 39.2936 41.8314 39.025 41.5 39.025C41.1686 39.025 40.9 39.2936 40.9 39.625ZM-18.125 48.3625H15.625V48.1375H-18.125V48.3625ZM15.7045 48.3295L20.9545 43.0795L20.7955 42.9205L15.5455 48.1705L15.7045 48.3295ZM20.875 43.1125H33.625V42.8875H20.875V43.1125ZM33.6962 43.0871L37.8212 39.7121L37.6788 39.5379L33.5538 42.9129L33.6962 43.0871ZM37.75 39.7375H41.5V39.5125H37.75V39.7375Z" fill="black"/>
<path d="M19.375 53.875V53.9875H19.4182L19.4503 53.9586L19.375 53.875ZM23.125 50.5V50.3875H23.0818L23.0497 50.4164L23.125 50.5ZM35.125 50.5V50.6125H35.1645L35.1953 50.5878L35.125 50.5ZM38.875 47.5V47.3875H38.8355L38.8047 47.4122L38.875 47.5ZM52.15 47.5C52.15 47.8314 52.4186 48.1 52.75 48.1C53.0814 48.1 53.35 47.8314 53.35 47.5C53.35 47.1686 53.0814 46.9 52.75 46.9C52.4186 46.9 52.15 47.1686 52.15 47.5ZM-9.125 53.9875H19.375V53.7625H-9.125V53.9875ZM19.4503 53.9586L23.2003 50.5836L23.0497 50.4164L19.2997 53.7914L19.4503 53.9586ZM23.125 50.6125H35.125V50.3875H23.125V50.6125ZM35.1953 50.5878L38.9453 47.5878L38.8047 47.4122L35.0547 50.4122L35.1953 50.5878ZM38.875 47.6125H52.75V47.3875H38.875V47.6125Z" fill="black"/>
<path d="M32.75 61.75C32.75 62.0261 32.9739 62.25 33.25 62.25C33.5261 62.25 33.75 62.0261 33.75 61.75C33.75 61.4739 33.5261 61.25 33.25 61.25C32.9739 61.25 32.75 61.4739 32.75 61.75ZM37.75 61.75L37.8003 61.6709L37.7773 61.6562H37.75V61.75ZM41.875 64.375L41.8247 64.4541L41.8477 64.4688H41.875V64.375ZM46.375 64.375V64.4688H46.4138L46.4413 64.4413L46.375 64.375ZM51.25 59.5V59.4062H51.2112L51.1837 59.4337L51.25 59.5ZM60.125 59.5C60.125 59.7761 60.3489 60 60.625 60C60.9011 60 61.125 59.7761 61.125 59.5C61.125 59.2239 60.9011 59 60.625 59C60.3489 59 60.125 59.2239 60.125 59.5ZM33.25 61.8438H37.75V61.6562H33.25V61.8438ZM37.6997 61.8291L41.8247 64.4541L41.9253 64.2959L37.8003 61.6709L37.6997 61.8291ZM41.875 64.4688H46.375V64.2812H41.875V64.4688ZM46.4413 64.4413L51.3163 59.5663L51.1837 59.4337L46.3087 64.3087L46.4413 64.4413ZM51.25 59.5938H60.625V59.4062H51.25V59.5938Z" fill="black"/>
<path d="M27 60.25C27 60.8023 27.4477 61.25 28 61.25C28.5523 61.25 29 60.8023 29 60.25C29 59.6977 28.5523 59.25 28 59.25C27.4477 59.25 27 59.6977 27 60.25ZM32.875 60.25V60.4375H32.9408L32.9921 60.3964L32.875 60.25ZM36.625 57.25V57.0625H36.5592L36.5079 57.1036L36.625 57.25ZM50.5 57.25V57.4375H50.5739L50.6279 57.3871L50.5 57.25ZM56.125 52V51.8125H56.0511L55.9971 51.8629L56.125 52ZM77.625 52C77.625 52.5523 78.0727 53 78.625 53C79.1773 53 79.625 52.5523 79.625 52C79.625 51.4477 79.1773 51 78.625 51C78.0727 51 77.625 51.4477 77.625 52ZM28 60.4375H32.875V60.0625H28V60.4375ZM32.9921 60.3964L36.7421 57.3964L36.5079 57.1036L32.7579 60.1036L32.9921 60.3964ZM36.625 57.4375H50.5V57.0625H36.625V57.4375ZM50.6279 57.3871L56.2529 52.1371L55.9971 51.8629L50.3721 57.1129L50.6279 57.3871ZM56.125 52.1875H78.625V51.8125H56.125V52.1875Z" fill="black"/>
<path d="M23.375 80.5C23.375 80.7761 23.5989 81 23.875 81C24.1511 81 24.375 80.7761 24.375 80.5C24.375 80.2239 24.1511 80 23.875 80C23.5989 80 23.375 80.2239 23.375 80.5ZM27.625 80.5V80.5938H27.6562L27.6813 80.575L27.625 80.5ZM32.125 77.125V77.0312H32.0938L32.0688 77.05L32.125 77.125ZM44.875 77.125V77.2188H44.9115L44.9383 77.1941L44.875 77.125ZM49.375 73V72.9062H49.3385L49.3117 72.9309L49.375 73ZM56.75 73C56.75 73.2761 56.9739 73.5 57.25 73.5C57.5261 73.5 57.75 73.2761 57.75 73C57.75 72.7239 57.5261 72.5 57.25 72.5C56.9739 72.5 56.75 72.7239 56.75 73ZM23.875 80.5938H27.625V80.4062H23.875V80.5938ZM27.6813 80.575L32.1812 77.2L32.0688 77.05L27.5687 80.425L27.6813 80.575ZM32.125 77.2188H44.875V77.0312H32.125V77.2188ZM44.9383 77.1941L49.4383 73.0691L49.3117 72.9309L44.8117 77.0559L44.9383 77.1941ZM49.375 73.0938H57.25V72.9062H49.375V73.0938Z" fill="black"/>
<path d="M35 79.75C35 80.0261 35.2239 80.25 35.5 80.25C35.7761 80.25 36 80.0261 36 79.75C36 79.4739 35.7761 79.25 35.5 79.25C35.2239 79.25 35 79.4739 35 79.75ZM48.25 79.75V79.8438H48.2839L48.31 79.822L48.25 79.75ZM50.5 77.875V77.7812H50.4661L50.44 77.803L50.5 77.875ZM56.125 77.875V77.9688H56.1604L56.187 77.9453L56.125 77.875ZM62.5 72.25V72.1562H62.4646L62.438 72.1797L62.5 72.25ZM73.25 72.25C73.25 72.5261 73.4739 72.75 73.75 72.75C74.0261 72.75 74.25 72.5261 74.25 72.25C74.25 71.9739 74.0261 71.75 73.75 71.75C73.4739 71.75 73.25 71.9739 73.25 72.25ZM35.5 79.8438H48.25V79.6562H35.5V79.8438ZM48.31 79.822L50.56 77.947L50.44 77.803L48.19 79.678L48.31 79.822ZM50.5 77.9688H56.125V77.7812H50.5V77.9688ZM56.187 77.9453L62.562 72.3203L62.438 72.1797L56.063 77.8047L56.187 77.9453ZM62.5 72.3438H73.75V72.1562H62.5V72.3438Z" fill="black"/>
<path d="M46.7 92.125C46.7 92.5668 47.0582 92.925 47.5 92.925C47.9418 92.925 48.3 92.5668 48.3 92.125C48.3 91.6832 47.9418 91.325 47.5 91.325C47.0582 91.325 46.7 91.6832 46.7 92.125ZM62.875 92.125V92.275H62.932L62.9747 92.2371L62.875 92.125ZM66.25 89.125V88.975H66.193L66.1503 89.0129L66.25 89.125ZM78.625 89.125V89.275H78.6914L78.736 89.2259L78.625 89.125ZM82.375 85V84.85H82.3086L82.264 84.8991L82.375 85ZM94.75 85L94.8514 84.8894L94.8083 84.85H94.75V85ZM98.45 89.125C98.45 89.5668 98.8082 89.925 99.25 89.925C99.6918 89.925 100.05 89.5668 100.05 89.125C100.05 88.6832 99.6918 88.325 99.25 88.325C98.8082 88.325 98.45 88.6832 98.45 89.125ZM47.5 92.275H62.875V91.975H47.5V92.275ZM62.9747 92.2371L66.3497 89.2371L66.1503 89.0129L62.7753 92.0129L62.9747 92.2371ZM66.25 89.275H78.625V88.975H66.25V89.275ZM78.736 89.2259L82.486 85.1009L82.264 84.8991L78.514 89.0241L78.736 89.2259ZM82.375 85.15H94.75V84.85H82.375V85.15ZM94.6486 85.1106L99.1486 89.2356L99.3514 89.0144L94.8514 84.8894L94.6486 85.1106Z" fill="black"/>
<path d="M25 91L25.1014 90.8894L25.0583 90.85H25V91ZM29.5 95.125L29.3986 95.2356L29.4417 95.275H29.5V95.125ZM32.45 95.125C32.45 95.5668 32.8082 95.925 33.25 95.925C33.6918 95.925 34.05 95.5668 34.05 95.125C34.05 94.6832 33.6918 94.325 33.25 94.325C32.8082 94.325 32.45 94.6832 32.45 95.125ZM-22.625 91.15H25V90.85H-22.625V91.15ZM24.8986 91.1106L29.3986 95.2356L29.6014 95.0144L25.1014 90.8894L24.8986 91.1106ZM29.5 95.275H33.25V94.975H29.5V95.275Z" fill="black"/>
<path d="M14.125 102.25V102.344H14.1514L14.1739 102.33L14.125 102.25ZM20.875 98.125V98.0312H20.8486L20.8261 98.045L20.875 98.125ZM26.375 98.125C26.375 98.4011 26.5989 98.625 26.875 98.625C27.1511 98.625 27.375 98.4011 27.375 98.125C27.375 97.8489 27.1511 97.625 26.875 97.625C26.5989 97.625 26.375 97.8489 26.375 98.125ZM-22.625 102.344H14.125V102.156H-22.625V102.344ZM14.1739 102.33L20.9239 98.205L20.8261 98.045L14.0761 102.17L14.1739 102.33ZM20.875 98.2188H26.875V98.0312H20.875V98.2188Z" fill="black"/>
<path d="M19 109V109.094H19.034L19.0602 109.072L19 109ZM37.375 93.625V93.5312H37.341L37.3148 93.5531L37.375 93.625ZM65.5 93.625L65.5494 93.5453L65.5267 93.5312H65.5V93.625ZM76.375 100.375L76.3256 100.455L76.3483 100.469H76.375V100.375ZM82.25 100.375C82.25 100.651 82.4739 100.875 82.75 100.875C83.0261 100.875 83.25 100.651 83.25 100.375C83.25 100.099 83.0261 99.875 82.75 99.875C82.4739 99.875 82.25 100.099 82.25 100.375ZM-22.625 109.094H19V108.906H-22.625V109.094ZM19.0602 109.072L37.4352 93.6969L37.3148 93.5531L18.9398 108.928L19.0602 109.072ZM37.375 93.7188H65.5V93.5312H37.375V93.7188ZM65.4506 93.7047L76.3256 100.455L76.4244 100.295L65.5494 93.5453L65.4506 93.7047ZM76.375 100.469H82.75V100.281H76.375V100.469Z" fill="black"/>
<path d="M19.75 112V112.319H19.876L19.968 112.233L19.75 112ZM25.75 106.375V106.056H25.624L25.532 106.142L25.75 106.375ZM38.5 106.375V106.694H38.6063L38.6912 106.63L38.5 106.375ZM47.5 99.625V99.3062H47.3938L47.3087 99.37L47.5 99.625ZM58.55 99.625C58.55 100.564 59.3111 101.325 60.25 101.325C61.1889 101.325 61.95 100.564 61.95 99.625C61.95 98.6861 61.1889 97.925 60.25 97.925C59.3111 97.925 58.55 98.6861 58.55 99.625ZM-23 112.319H19.75V111.681H-23V112.319ZM19.968 112.233L25.968 106.608L25.532 106.142L19.532 111.767L19.968 112.233ZM25.75 106.694H38.5V106.056H25.75V106.694ZM38.6912 106.63L47.6913 99.88L47.3087 99.37L38.3088 106.12L38.6912 106.63ZM47.5 99.9438H60.25V99.3062H47.5V99.9438Z" fill="black"/>
<path d="M31 83.5L31.2124 83.191L31.1165 83.125H31V83.5ZM37 87.625L36.7876 87.934L36.8835 88H37V87.625ZM50.5 87.625V88H50.6483L50.7565 87.8986L50.5 87.625ZM62.5 76.375V76H62.3517L62.2435 76.1014L62.5 76.375ZM75.875 76.375C75.875 77.4796 76.7704 78.375 77.875 78.375C78.9796 78.375 79.875 77.4796 79.875 76.375C79.875 75.2704 78.9796 74.375 77.875 74.375C76.7704 74.375 75.875 75.2704 75.875 76.375ZM-23 83.875H31V83.125H-23V83.875ZM30.7876 83.809L36.7876 87.934L37.2124 87.316L31.2124 83.191L30.7876 83.809ZM37 88H50.5V87.25H37V88ZM50.7565 87.8986L62.7565 76.6486L62.2435 76.1014L50.2435 87.3514L50.7565 87.8986ZM62.5 76.75H77.875V76H62.5V76.75Z" fill="black"/>
<path d="M-1.25 56.875L-1.06697 56.6615L-1.14596 56.5938H-1.25V56.875ZM4 61.375L3.81697 61.5885L3.89596 61.6562H4V61.375ZM19 61.375V61.6562H19.1087L19.1892 61.5831L19 61.375ZM27.25 53.875V53.5938H27.1413L27.0608 53.6669L27.25 53.875ZM41.125 53.875C41.125 54.7034 41.7966 55.375 42.625 55.375C43.4534 55.375 44.125 54.7034 44.125 53.875C44.125 53.0466 43.4534 52.375 42.625 52.375C41.7966 52.375 41.125 53.0466 41.125 53.875ZM-23 57.1562H-1.25V56.5938H-23V57.1562ZM-1.43303 57.0885L3.81697 61.5885L4.18303 61.1615L-1.06697 56.6615L-1.43303 57.0885ZM4 61.6562H19V61.0938H4V61.6562ZM19.1892 61.5831L27.4392 54.0831L27.0608 53.6669L18.8108 61.1669L19.1892 61.5831ZM27.25 54.1562H42.625V53.5938H27.25V54.1562Z" fill="black"/>
<path d="M19.75 28L19.983 27.7825L19.8885 27.6812H19.75V28ZM25 33.625L24.767 33.8425L24.8615 33.9437H25V33.625ZM38.5 33.625L38.7041 33.3801L38.6154 33.3063H38.5V33.625ZM47.5 41.125L47.2959 41.3699L47.3846 41.4438H47.5V41.125ZM58.55 41.125C58.55 42.0639 59.3111 42.825 60.25 42.825C61.1889 42.825 61.95 42.0639 61.95 41.125C61.95 40.1861 61.1889 39.425 60.25 39.425C59.3111 39.425 58.55 40.1861 58.55 41.125ZM-23 28.3188H19.75V27.6812H-23V28.3188ZM19.517 28.2175L24.767 33.8425L25.233 33.4075L19.983 27.7825L19.517 28.2175ZM25 33.9437H38.5V33.3063H25V33.9437ZM38.2959 33.8699L47.2959 41.3699L47.7041 40.8801L38.7041 33.3801L38.2959 33.8699ZM47.5 41.4438H60.25V40.8062H47.5V41.4438Z" fill="black"/>
<path d="M13 64L13.104 63.844L13.0568 63.8125H13V64ZM16.375 66.25L16.271 66.406L16.3182 66.4375H16.375V66.25ZM59.5 66.25V66.4375H59.572L59.6254 66.3894L59.5 66.25ZM67 59.5V59.3125H66.928L66.8746 59.3606L67 59.5ZM83.5 59.5V59.6875H83.5425L83.5809 59.6692L83.5 59.5ZM92.125 55.375V55.1875H92.0825L92.0441 55.2058L92.125 55.375ZM101.25 55.375C101.25 55.9273 101.698 56.375 102.25 56.375C102.802 56.375 103.25 55.9273 103.25 55.375C103.25 54.8227 102.802 54.375 102.25 54.375C101.698 54.375 101.25 54.8227 101.25 55.375ZM-23 64.1875H13V63.8125H-23V64.1875ZM12.896 64.156L16.271 66.406L16.479 66.094L13.104 63.844L12.896 64.156ZM16.375 66.4375H59.5V66.0625H16.375V66.4375ZM59.6254 66.3894L67.1254 59.6394L66.8746 59.3606L59.3746 66.1106L59.6254 66.3894ZM67 59.6875H83.5V59.3125H67V59.6875ZM83.5809 59.6692L92.2059 55.5442L92.0441 55.2058L83.4191 59.3308L83.5809 59.6692ZM92.125 55.5625H102.25V55.1875H92.125V55.5625Z" fill="black"/>
<path d="M56 85C56 85.2761 56.2239 85.5 56.5 85.5C56.7761 85.5 57 85.2761 57 85C57 84.7239 56.7761 84.5 56.5 84.5C56.2239 84.5 56 84.7239 56 85ZM58.75 85V85.0938H58.7888L58.8163 85.0663L58.75 85ZM65.5 78.25V78.1562H65.4612L65.4337 78.1837L65.5 78.25ZM73.375 78.25L73.453 78.198L73.4252 78.1562H73.375V78.25ZM74.875 80.5L74.797 80.552L74.8248 80.5938H74.875V80.5ZM81.125 80.5C81.125 80.7761 81.3489 81 81.625 81C81.9011 81 82.125 80.7761 82.125 80.5C82.125 80.2239 81.9011 80 81.625 80C81.3489 80 81.125 80.2239 81.125 80.5ZM56.5 85.0938H58.75V84.9062H56.5V85.0938ZM58.8163 85.0663L65.5663 78.3163L65.4337 78.1837L58.6837 84.9337L58.8163 85.0663ZM65.5 78.3438H73.375V78.1562H65.5V78.3438ZM73.297 78.302L74.797 80.552L74.953 80.448L73.453 78.198L73.297 78.302ZM74.875 80.5938H81.625V80.4062H74.875V80.5938Z" fill="black"/>
</mask>
<g mask="url(#mask0_174_153)">
<rect x="12" y="17" width="95" height="111" fill="url(#paint1_linear_174_153)"/>
</g>
</g>
<g clip-path="url(#clip1_174_153)">
<mask id="mask1_174_153" style="mask-type:alpha" maskUnits="userSpaceOnUse" x="166" y="21" width="127" height="86">
<path d="M254.375 85.75V85.6375H254.328L254.295 85.6705L254.375 85.75ZM249.125 91V91.1125H249.172L249.205 91.0795L249.125 91ZM236.375 91V90.8875H236.335L236.304 90.9129L236.375 91ZM232.25 94.375V94.4875H232.29L232.321 94.4621L232.25 94.375ZM229.1 94.375C229.1 94.0436 228.831 93.775 228.5 93.775C228.169 93.775 227.9 94.0436 227.9 94.375C227.9 94.7064 228.169 94.975 228.5 94.975C228.831 94.975 229.1 94.7064 229.1 94.375ZM288.125 85.6375H254.375V85.8625H288.125V85.6375ZM254.295 85.6705L249.045 90.9205L249.205 91.0795L254.455 85.8295L254.295 85.6705ZM249.125 90.8875H236.375V91.1125H249.125V90.8875ZM236.304 90.9129L232.179 94.2879L232.321 94.4621L236.446 91.0871L236.304 90.9129ZM232.25 94.2625H228.5V94.4875H232.25V94.2625Z" fill="black"/>
<path d="M250.625 80.125V80.0125H250.582L250.55 80.0414L250.625 80.125ZM246.875 83.5V83.6125H246.918L246.95 83.5836L246.875 83.5ZM234.875 83.5V83.3875H234.836L234.805 83.4122L234.875 83.5ZM231.125 86.5V86.6125H231.164L231.195 86.5878L231.125 86.5ZM217.85 86.5C217.85 86.1686 217.581 85.9 217.25 85.9C216.919 85.9 216.65 86.1686 216.65 86.5C216.65 86.8314 216.919 87.1 217.25 87.1C217.581 87.1 217.85 86.8314 217.85 86.5ZM279.125 80.0125H250.625V80.2375H279.125V80.0125ZM250.55 80.0414L246.8 83.4164L246.95 83.5836L250.7 80.2086L250.55 80.0414ZM246.875 83.3875H234.875V83.6125H246.875V83.3875ZM234.805 83.4122L231.055 86.4122L231.195 86.5878L234.945 83.5878L234.805 83.4122ZM231.125 86.3875H217.25V86.6125H231.125V86.3875Z" fill="black"/>
<path d="M237.25 72.25C237.25 71.9739 237.026 71.75 236.75 71.75C236.474 71.75 236.25 71.9739 236.25 72.25C236.25 72.5261 236.474 72.75 236.75 72.75C237.026 72.75 237.25 72.5261 237.25 72.25ZM232.25 72.25L232.2 72.3291L232.223 72.3438H232.25V72.25ZM228.125 69.625L228.175 69.5459L228.152 69.5312H228.125V69.625ZM223.625 69.625V69.5312H223.586L223.559 69.5587L223.625 69.625ZM218.75 74.5V74.5938H218.789L218.816 74.5663L218.75 74.5ZM209.875 74.5C209.875 74.2239 209.651 74 209.375 74C209.099 74 208.875 74.2239 208.875 74.5C208.875 74.7761 209.099 75 209.375 75C209.651 75 209.875 74.7761 209.875 74.5ZM236.75 72.1562H232.25V72.3438H236.75V72.1562ZM232.3 72.1709L228.175 69.5459L228.075 69.7041L232.2 72.3291L232.3 72.1709ZM228.125 69.5312H223.625V69.7188H228.125V69.5312ZM223.559 69.5587L218.684 74.4337L218.816 74.5663L223.691 69.6913L223.559 69.5587ZM218.75 74.4062H209.375V74.5938H218.75V74.4062Z" fill="black"/>
<path d="M243 73.75C243 73.1977 242.552 72.75 242 72.75C241.448 72.75 241 73.1977 241 73.75C241 74.3023 241.448 74.75 242 74.75C242.552 74.75 243 74.3023 243 73.75ZM237.125 73.75V73.5625H237.059L237.008 73.6036L237.125 73.75ZM233.375 76.75V76.9375H233.441L233.492 76.8964L233.375 76.75ZM219.5 76.75V76.5625H219.426L219.372 76.6129L219.5 76.75ZM213.875 82V82.1875H213.949L214.003 82.1371L213.875 82ZM192.375 82C192.375 81.4477 191.927 81 191.375 81C190.823 81 190.375 81.4477 190.375 82C190.375 82.5523 190.823 83 191.375 83C191.927 83 192.375 82.5523 192.375 82ZM242 73.5625H237.125V73.9375H242V73.5625ZM237.008 73.6036L233.258 76.6036L233.492 76.8964L237.242 73.8964L237.008 73.6036ZM233.375 76.5625H219.5V76.9375H233.375V76.5625ZM219.372 76.6129L213.747 81.8629L214.003 82.1371L219.628 76.8871L219.372 76.6129ZM213.875 81.8125H191.375V82.1875H213.875V81.8125Z" fill="black"/>
<path d="M246.625 53.5C246.625 53.2239 246.401 53 246.125 53C245.849 53 245.625 53.2239 245.625 53.5C245.625 53.7761 245.849 54 246.125 54C246.401 54 246.625 53.7761 246.625 53.5ZM242.375 53.5V53.4062H242.344L242.319 53.425L242.375 53.5ZM237.875 56.875V56.9688H237.906L237.931 56.95L237.875 56.875ZM225.125 56.875V56.7812H225.089L225.062 56.8059L225.125 56.875ZM220.625 61V61.0938H220.661L220.688 61.0691L220.625 61ZM213.25 61C213.25 60.7239 213.026 60.5 212.75 60.5C212.474 60.5 212.25 60.7239 212.25 61C212.25 61.2761 212.474 61.5 212.75 61.5C213.026 61.5 213.25 61.2761 213.25 61ZM246.125 53.4062H242.375V53.5938H246.125V53.4062ZM242.319 53.425L237.819 56.8L237.931 56.95L242.431 53.575L242.319 53.425ZM237.875 56.7812H225.125V56.9688H237.875V56.7812ZM225.062 56.8059L220.562 60.9309L220.688 61.0691L225.188 56.9441L225.062 56.8059ZM220.625 60.9062H212.75V61.0938H220.625V60.9062Z" fill="black"/>
<path d="M235 54.25C235 53.9739 234.776 53.75 234.5 53.75C234.224 53.75 234 53.9739 234 54.25C234 54.5261 234.224 54.75 234.5 54.75C234.776 54.75 235 54.5261 235 54.25ZM221.75 54.25V54.1562H221.716L221.69 54.178L221.75 54.25ZM219.5 56.125V56.2188H219.534L219.56 56.197L219.5 56.125ZM213.875 56.125V56.0312H213.84L213.813 56.0547L213.875 56.125ZM207.5 61.75V61.8438H207.535L207.562 61.8203L207.5 61.75ZM196.75 61.75C196.75 61.4739 196.526 61.25 196.25 61.25C195.974 61.25 195.75 61.4739 195.75 61.75C195.75 62.0261 195.974 62.25 196.25 62.25C196.526 62.25 196.75 62.0261 196.75 61.75ZM234.5 54.1562H221.75V54.3438H234.5V54.1562ZM221.69 54.178L219.44 56.053L219.56 56.197L221.81 54.322L221.69 54.178ZM219.5 56.0312H213.875V56.2188H219.5V56.0312ZM213.813 56.0547L207.438 61.6797L207.562 61.8203L213.937 56.1953L213.813 56.0547ZM207.5 61.6562H196.25V61.8438H207.5V61.6562Z" fill="black"/>
<path d="M223.3 41.875C223.3 41.4332 222.942 41.075 222.5 41.075C222.058 41.075 221.7 41.4332 221.7 41.875C221.7 42.3168 222.058 42.675 222.5 42.675C222.942 42.675 223.3 42.3168 223.3 41.875ZM207.125 41.875V41.725H207.068L207.025 41.7629L207.125 41.875ZM203.75 44.875V45.025H203.807L203.85 44.9871L203.75 44.875ZM191.375 44.875V44.725H191.309L191.264 44.7741L191.375 44.875ZM187.625 49V49.15H187.691L187.736 49.1009L187.625 49ZM175.25 49L175.149 49.1106L175.192 49.15H175.25V49ZM171.55 44.875C171.55 44.4332 171.192 44.075 170.75 44.075C170.308 44.075 169.95 44.4332 169.95 44.875C169.95 45.3168 170.308 45.675 170.75 45.675C171.192 45.675 171.55 45.3168 171.55 44.875ZM222.5 41.725H207.125V42.025H222.5V41.725ZM207.025 41.7629L203.65 44.7629L203.85 44.9871L207.225 41.9871L207.025 41.7629ZM203.75 44.725H191.375V45.025H203.75V44.725ZM191.264 44.7741L187.514 48.8991L187.736 49.1009L191.486 44.9759L191.264 44.7741ZM187.625 48.85H175.25V49.15H187.625V48.85ZM175.351 48.8894L170.851 44.7644L170.649 44.9856L175.149 49.1106L175.351 48.8894Z" fill="black"/>
<path d="M245 43L244.899 43.1106L244.942 43.15H245V43ZM240.5 38.875L240.601 38.7644L240.558 38.725H240.5V38.875ZM237.55 38.875C237.55 38.4332 237.192 38.075 236.75 38.075C236.308 38.075 235.95 38.4332 235.95 38.875C235.95 39.3168 236.308 39.675 236.75 39.675C237.192 39.675 237.55 39.3168 237.55 38.875ZM292.625 42.85H245V43.15H292.625V42.85ZM245.101 42.8894L240.601 38.7644L240.399 38.9856L244.899 43.1106L245.101 42.8894ZM240.5 38.725H236.75V39.025H240.5V38.725Z" fill="black"/>
<path d="M255.875 31.75V31.6562H255.849L255.826 31.67L255.875 31.75ZM249.125 35.875V35.9688H249.151L249.174 35.955L249.125 35.875ZM243.625 35.875C243.625 35.5989 243.401 35.375 243.125 35.375C242.849 35.375 242.625 35.5989 242.625 35.875C242.625 36.1511 242.849 36.375 243.125 36.375C243.401 36.375 243.625 36.1511 243.625 35.875ZM292.625 31.6562H255.875V31.8438H292.625V31.6562ZM255.826 31.67L249.076 35.795L249.174 35.955L255.924 31.83L255.826 31.67ZM249.125 35.7812H243.125V35.9688H249.125V35.7812Z" fill="black"/>
<path d="M251 25V24.9062H250.966L250.94 24.9281L251 25ZM232.625 40.375V40.4688H232.659L232.685 40.4469L232.625 40.375ZM204.5 40.375L204.451 40.4547L204.473 40.4688H204.5V40.375ZM193.625 33.625L193.674 33.5453L193.652 33.5312H193.625V33.625ZM187.75 33.625C187.75 33.3489 187.526 33.125 187.25 33.125C186.974 33.125 186.75 33.3489 186.75 33.625C186.75 33.9011 186.974 34.125 187.25 34.125C187.526 34.125 187.75 33.9011 187.75 33.625ZM292.625 24.9062H251V25.0938H292.625V24.9062ZM250.94 24.9281L232.565 40.3031L232.685 40.4469L251.06 25.0719L250.94 24.9281ZM232.625 40.2812H204.5V40.4688H232.625V40.2812ZM204.549 40.2953L193.674 33.5453L193.576 33.7047L204.451 40.4547L204.549 40.2953ZM193.625 33.5312H187.25V33.7188H193.625V33.5312Z" fill="black"/>
<path d="M250.25 22V21.6812H250.124L250.032 21.7675L250.25 22ZM244.25 27.625V27.9437H244.376L244.468 27.8575L244.25 27.625ZM231.5 27.625V27.3063H231.394L231.309 27.37L231.5 27.625ZM222.5 34.375V34.6938H222.606L222.691 34.63L222.5 34.375ZM211.45 34.375C211.45 33.4361 210.689 32.675 209.75 32.675C208.811 32.675 208.05 33.4361 208.05 34.375C208.05 35.3139 208.811 36.075 209.75 36.075C210.689 36.075 211.45 35.3139 211.45 34.375ZM293 21.6812H250.25V22.3188H293V21.6812ZM250.032 21.7675L244.032 27.3925L244.468 27.8575L250.468 22.2325L250.032 21.7675ZM244.25 27.3063H231.5V27.9437H244.25V27.3063ZM231.309 27.37L222.309 34.12L222.691 34.63L231.691 27.88L231.309 27.37ZM222.5 34.0562H209.75V34.6938H222.5V34.0562Z" fill="black"/>
<path d="M239 50.5L238.788 50.809L238.884 50.875H239V50.5ZM233 46.375L233.212 46.066L233.116 46H233V46.375ZM219.5 46.375V46H219.352L219.244 46.1014L219.5 46.375ZM207.5 57.625V58H207.648L207.756 57.8986L207.5 57.625ZM194.125 57.625C194.125 56.5204 193.23 55.625 192.125 55.625C191.02 55.625 190.125 56.5204 190.125 57.625C190.125 58.7296 191.02 59.625 192.125 59.625C193.23 59.625 194.125 58.7296 194.125 57.625ZM293 50.125H239V50.875H293V50.125ZM239.212 50.191L233.212 46.066L232.788 46.684L238.788 50.809L239.212 50.191ZM233 46H219.5V46.75H233V46ZM219.244 46.1014L207.244 57.3514L207.756 57.8986L219.756 46.6486L219.244 46.1014ZM207.5 57.25H192.125V58H207.5V57.25Z" fill="black"/>
<path d="M271.25 77.125L271.067 77.3385L271.146 77.4062H271.25V77.125ZM266 72.625L266.183 72.4115L266.104 72.3438H266V72.625ZM251 72.625V72.3438H250.891L250.811 72.4169L251 72.625ZM242.75 80.125V80.4062H242.859L242.939 80.3331L242.75 80.125ZM228.875 80.125C228.875 79.2966 228.203 78.625 227.375 78.625C226.547 78.625 225.875 79.2966 225.875 80.125C225.875 80.9534 226.547 81.625 227.375 81.625C228.203 81.625 228.875 80.9534 228.875 80.125ZM293 76.8438H271.25V77.4062H293V76.8438ZM271.433 76.9115L266.183 72.4115L265.817 72.8385L271.067 77.3385L271.433 76.9115ZM266 72.3438H251V72.9062H266V72.3438ZM250.811 72.4169L242.561 79.9169L242.939 80.3331L251.189 72.8331L250.811 72.4169ZM242.75 79.8438H227.375V80.4062H242.75V79.8438Z" fill="black"/>
<path d="M250.25 106L250.017 106.217L250.111 106.319H250.25V106ZM245 100.375L245.233 100.158L245.139 100.056H245V100.375ZM231.5 100.375L231.296 100.62L231.385 100.694H231.5V100.375ZM222.5 92.875L222.704 92.6301L222.615 92.5562H222.5V92.875ZM211.45 92.875C211.45 91.9361 210.689 91.175 209.75 91.175C208.811 91.175 208.05 91.9361 208.05 92.875C208.05 93.8139 208.811 94.575 209.75 94.575C210.689 94.575 211.45 93.8139 211.45 92.875ZM293 105.681H250.25V106.319H293V105.681ZM250.483 105.783L245.233 100.158L244.767 100.592L250.017 106.217L250.483 105.783ZM245 100.056H231.5V100.694H245V100.056ZM231.704 100.13L222.704 92.6301L222.296 93.1199L231.296 100.62L231.704 100.13ZM222.5 92.5562H209.75V93.1938H222.5V92.5562Z" fill="black"/>
<path d="M257 70L256.896 70.156L256.943 70.1875H257V70ZM253.625 67.75L253.729 67.594L253.682 67.5625H253.625V67.75ZM210.5 67.75V67.5625H210.428L210.375 67.6106L210.5 67.75ZM203 74.5V74.6875H203.072L203.125 74.6394L203 74.5ZM186.5 74.5V74.3125H186.457L186.419 74.3308L186.5 74.5ZM177.875 78.625V78.8125H177.918L177.956 78.7942L177.875 78.625ZM168.75 78.625C168.75 78.0727 168.302 77.625 167.75 77.625C167.198 77.625 166.75 78.0727 166.75 78.625C166.75 79.1773 167.198 79.625 167.75 79.625C168.302 79.625 168.75 79.1773 168.75 78.625ZM293 69.8125H257V70.1875H293V69.8125ZM257.104 69.844L253.729 67.594L253.521 67.906L256.896 70.156L257.104 69.844ZM253.625 67.5625H210.5V67.9375H253.625V67.5625ZM210.375 67.6106L202.875 74.3606L203.125 74.6394L210.625 67.8894L210.375 67.6106ZM203 74.3125H186.5V74.6875H203V74.3125ZM186.419 74.3308L177.794 78.4558L177.956 78.7942L186.581 74.6692L186.419 74.3308ZM177.875 78.4375H167.75V78.8125H177.875V78.4375Z" fill="black"/>
<path d="M214 49C214 48.7239 213.776 48.5 213.5 48.5C213.224 48.5 213 48.7239 213 49C213 49.2761 213.224 49.5 213.5 49.5C213.776 49.5 214 49.2761 214 49ZM211.25 49V48.9062H211.211L211.184 48.9337L211.25 49ZM204.5 55.75V55.8438H204.539L204.566 55.8163L204.5 55.75ZM196.625 55.75L196.547 55.802L196.575 55.8438H196.625V55.75ZM195.125 53.5L195.203 53.448L195.175 53.4062H195.125V53.5ZM188.875 53.5C188.875 53.2239 188.651 53 188.375 53C188.099 53 187.875 53.2239 187.875 53.5C187.875 53.7761 188.099 54 188.375 54C188.651 54 188.875 53.7761 188.875 53.5ZM213.5 48.9062H211.25V49.0938H213.5V48.9062ZM211.184 48.9337L204.434 55.6837L204.566 55.8163L211.316 49.0663L211.184 48.9337ZM204.5 55.6562H196.625V55.8438H204.5V55.6562ZM196.703 55.698L195.203 53.448L195.047 53.552L196.547 55.802L196.703 55.698ZM195.125 53.4062H188.375V53.5938H195.125V53.4062Z" fill="black"/>
</mask>
<g mask="url(#mask1_174_153)">
<rect x="258" y="117" width="95" height="111" transform="rotate(180 258 117)" fill="url(#paint2_linear_174_153)"/>
</g>
</g>
<path d="M131.216 100.858C108.426 94.4877 96.7592 69.5188 102.853 46.374C103.282 44.7444 104.658 43.5532 106.314 43.0791C111.114 41.705 114.879 39.6283 118.432 37.6681C119.222 37.2324 120.001 36.8025 120.779 36.3873C125.061 34.1024 129.321 32.25 135.125 32.25C140.936 32.25 145.02 34.1065 149.158 36.3951C149.832 36.7682 150.509 37.1531 151.194 37.5434C154.714 39.5465 158.48 41.6901 163.504 43.0934C165.17 43.559 166.559 44.7531 167 46.3892C173.614 70.8847 160.873 93.5054 138.973 100.668C136.464 101.489 133.756 101.568 131.216 100.858Z" fill="url(#paint3_linear_174_153)" stroke="url(#paint4_linear_174_153)" stroke-width="0.5"/>
<path d="M131.809 94.8582C113.201 89.5475 103.675 68.9625 108.71 49.8752C109.035 48.6419 110.079 47.7253 111.358 47.3599C115.362 46.2157 118.5 44.474 121.443 42.8404C122.084 42.4846 122.716 42.1339 123.345 41.7957C126.871 39.9013 130.354 38.375 135.103 38.375C139.856 38.375 143.194 39.9038 146.599 41.8007C147.145 42.1045 147.693 42.4182 148.249 42.7366C151.163 44.4056 154.302 46.2033 158.494 47.3718C159.781 47.7304 160.834 48.649 161.169 49.8882C166.629 70.0877 156.234 88.7411 138.338 94.6975C136.227 95.4002 133.944 95.4676 131.809 94.8582Z" fill="url(#paint5_linear_174_153)" stroke="url(#paint6_linear_174_153)" stroke-width="0.75"/>
<path d="M132.558 88.0251C118.707 83.9778 111.608 68.4388 115.377 54.0152C115.609 53.1267 116.362 52.4572 117.296 52.1871C120.311 51.3157 122.675 49.9883 124.882 48.7488C125.362 48.4792 125.835 48.2138 126.305 47.9582C128.944 46.5238 131.54 45.375 135.077 45.375C138.617 45.375 141.103 46.5253 143.652 47.9613C144.06 48.191 144.47 48.4285 144.886 48.6698C147.072 49.936 149.437 51.3062 152.593 52.1962C153.533 52.4613 154.293 53.1324 154.532 54.0256C158.618 69.2862 150.878 83.3712 137.547 87.9013C135.935 88.4492 134.188 88.5013 132.558 88.0251Z" fill="url(#paint7_linear_174_153)" stroke="url(#paint8_linear_174_153)" stroke-width="0.75"/>
<path d="M126.202 67.2172L131.509 72.4007C131.76 72.6452 132.159 72.6452 132.41 72.4007L145.393 59.7197" stroke="white" stroke-width="2.95" stroke-linecap="round"/>
<path d="M95.3083 128.75V125.214H102.38V150H98.4703V128.75H95.3083ZM107.705 137.284C107.705 133.363 108.362 130.303 109.677 128.104C111.014 125.883 113.304 124.772 116.545 124.772C119.786 124.772 122.064 125.883 123.379 128.104C124.716 130.303 125.385 133.363 125.385 137.284C125.385 141.251 124.716 144.356 123.379 146.6C122.064 148.821 119.786 149.932 116.545 149.932C113.304 149.932 111.014 148.821 109.677 146.6C108.362 144.356 107.705 141.251 107.705 137.284ZM121.577 137.284C121.577 135.448 121.452 133.895 121.203 132.626C120.976 131.357 120.5 130.325 119.775 129.532C119.05 128.716 117.973 128.308 116.545 128.308C115.117 128.308 114.04 128.716 113.315 129.532C112.59 130.325 112.102 131.357 111.853 132.626C111.626 133.895 111.513 135.448 111.513 137.284C111.513 139.188 111.626 140.786 111.853 142.078C112.08 143.37 112.556 144.413 113.281 145.206C114.029 145.999 115.117 146.396 116.545 146.396C117.973 146.396 119.05 145.999 119.775 145.206C120.523 144.413 121.01 143.37 121.237 142.078C121.464 140.786 121.577 139.188 121.577 137.284ZM129.486 137.284C129.486 133.363 130.144 130.303 131.458 128.104C132.796 125.883 135.085 124.772 138.326 124.772C141.568 124.772 143.846 125.883 145.16 128.104C146.498 130.303 147.166 133.363 147.166 137.284C147.166 141.251 146.498 144.356 145.16 146.6C143.846 148.821 141.568 149.932 138.326 149.932C135.085 149.932 132.796 148.821 131.458 146.6C130.144 144.356 129.486 141.251 129.486 137.284ZM143.358 137.284C143.358 135.448 143.234 133.895 142.984 132.626C142.758 131.357 142.282 130.325 141.556 129.532C140.831 128.716 139.754 128.308 138.326 128.308C136.898 128.308 135.822 128.716 135.096 129.532C134.371 130.325 133.884 131.357 133.634 132.626C133.408 133.895 133.294 135.448 133.294 137.284C133.294 139.188 133.408 140.786 133.634 142.078C133.861 143.37 134.337 144.413 135.062 145.206C135.81 145.999 136.898 146.396 138.326 146.396C139.754 146.396 140.831 145.999 141.556 145.206C142.304 144.413 142.792 143.37 143.018 142.078C143.245 140.786 143.358 139.188 143.358 137.284ZM150.656 131.198C150.656 129.543 151.132 128.251 152.084 127.322C153.058 126.37 154.305 125.894 155.824 125.894C157.342 125.894 158.578 126.37 159.53 127.322C160.504 128.251 160.992 129.543 160.992 131.198C160.992 132.853 160.504 134.156 159.53 135.108C158.578 136.06 157.342 136.536 155.824 136.536C154.305 136.536 153.058 136.06 152.084 135.108C151.132 134.156 150.656 132.853 150.656 131.198ZM171.396 126.336L157.83 150H154.022L167.588 126.336H171.396ZM155.824 128.24C154.396 128.24 153.682 129.226 153.682 131.198C153.682 133.193 154.396 134.19 155.824 134.19C156.504 134.19 157.025 133.952 157.388 133.476C157.773 132.977 157.966 132.218 157.966 131.198C157.966 129.226 157.252 128.24 155.824 128.24ZM164.494 145.104C164.494 143.449 164.97 142.157 165.922 141.228C166.896 140.276 168.143 139.8 169.662 139.8C171.158 139.8 172.382 140.276 173.334 141.228C174.308 142.157 174.796 143.449 174.796 145.104C174.796 146.759 174.308 148.062 173.334 149.014C172.382 149.966 171.158 150.442 169.662 150.442C168.143 150.442 166.896 149.966 165.922 149.014C164.97 148.062 164.494 146.759 164.494 145.104ZM169.628 142.146C168.2 142.146 167.486 143.132 167.486 145.104C167.486 147.076 168.2 148.062 169.628 148.062C171.056 148.062 171.77 147.076 171.77 145.104C171.77 143.132 171.056 142.146 169.628 142.146Z" fill="#0084FF"/>
<path d="M83.592 176.552C83.592 175.667 83.7733 174.883 84.136 174.2C84.5093 173.517 85.0107 172.989 85.64 172.616C86.28 172.232 86.9893 172.04 87.768 172.04C88.344 172.04 88.9093 172.168 89.464 172.424C90.0293 172.669 90.4773 173 90.808 173.416V169.16H92.648V181H90.808V179.672C90.5093 180.099 90.0933 180.451 89.56 180.728C89.0373 181.005 88.4347 181.144 87.752 181.144C86.984 181.144 86.28 180.952 85.64 180.568C85.0107 180.173 84.5093 179.629 84.136 178.936C83.7733 178.232 83.592 177.437 83.592 176.552ZM90.808 176.584C90.808 175.976 90.68 175.448 90.424 175C90.1787 174.552 89.8533 174.211 89.448 173.976C89.0427 173.741 88.6053 173.624 88.136 173.624C87.6667 173.624 87.2293 173.741 86.824 173.976C86.4187 174.2 86.088 174.536 85.832 174.984C85.5867 175.421 85.464 175.944 85.464 176.552C85.464 177.16 85.5867 177.693 85.832 178.152C86.088 178.611 86.4187 178.963 86.824 179.208C87.24 179.443 87.6773 179.56 88.136 179.56C88.6053 179.56 89.0427 179.443 89.448 179.208C89.8533 178.973 90.1787 178.632 90.424 178.184C90.68 177.725 90.808 177.192 90.808 176.584ZM103.124 176.376C103.124 176.707 103.102 177.005 103.06 177.272H96.3238C96.3771 177.976 96.6384 178.541 97.1078 178.968C97.5771 179.395 98.1531 179.608 98.8358 179.608C99.8171 179.608 100.51 179.197 100.916 178.376H102.884C102.617 179.187 102.132 179.853 101.428 180.376C100.734 180.888 99.8704 181.144 98.8358 181.144C97.9931 181.144 97.2358 180.957 96.5638 180.584C95.9024 180.2 95.3798 179.667 94.9958 178.984C94.6224 178.291 94.4358 177.491 94.4358 176.584C94.4358 175.677 94.6171 174.883 94.9798 174.2C95.3531 173.507 95.8704 172.973 96.5318 172.6C97.2038 172.227 97.9718 172.04 98.8358 172.04C99.6678 172.04 100.409 172.221 101.06 172.584C101.71 172.947 102.217 173.459 102.58 174.12C102.942 174.771 103.124 175.523 103.124 176.376ZM101.22 175.8C101.209 175.128 100.969 174.589 100.5 174.184C100.03 173.779 99.4491 173.576 98.7558 173.576C98.1264 173.576 97.5878 173.779 97.1398 174.184C96.6918 174.579 96.4251 175.117 96.3398 175.8H101.22ZM106.743 169.16V181H104.919V169.16H106.743ZM110.066 171.016C109.735 171.016 109.458 170.904 109.234 170.68C109.01 170.456 108.898 170.179 108.898 169.848C108.898 169.517 109.01 169.24 109.234 169.016C109.458 168.792 109.735 168.68 110.066 168.68C110.386 168.68 110.658 168.792 110.882 169.016C111.106 169.24 111.218 169.517 111.218 169.848C111.218 170.179 111.106 170.456 110.882 170.68C110.658 170.904 110.386 171.016 110.066 171.016ZM110.962 172.184V181H109.138V172.184H110.962ZM116.764 179.368L119.26 172.184H121.196L117.836 181H115.66L112.316 172.184H114.268L116.764 179.368ZM130.655 176.376C130.655 176.707 130.634 177.005 130.591 177.272H123.855C123.908 177.976 124.17 178.541 124.639 178.968C125.108 179.395 125.684 179.608 126.367 179.608C127.348 179.608 128.042 179.197 128.447 178.376H130.415C130.148 179.187 129.663 179.853 128.959 180.376C128.266 180.888 127.402 181.144 126.367 181.144C125.524 181.144 124.767 180.957 124.095 180.584C123.434 180.2 122.911 179.667 122.527 178.984C122.154 178.291 121.967 177.491 121.967 176.584C121.967 175.677 122.148 174.883 122.511 174.2C122.884 173.507 123.402 172.973 124.063 172.6C124.735 172.227 125.503 172.04 126.367 172.04C127.199 172.04 127.94 172.221 128.591 172.584C129.242 172.947 129.748 173.459 130.111 174.12C130.474 174.771 130.655 175.523 130.655 176.376ZM128.751 175.8C128.74 175.128 128.5 174.589 128.031 174.184C127.562 173.779 126.98 173.576 126.287 173.576C125.658 173.576 125.119 173.779 124.671 174.184C124.223 174.579 123.956 175.117 123.871 175.8H128.751ZM134.274 173.464C134.541 173.016 134.893 172.669 135.33 172.424C135.778 172.168 136.306 172.04 136.914 172.04V173.928H136.45C135.735 173.928 135.191 174.109 134.818 174.472C134.455 174.835 134.274 175.464 134.274 176.36V181H132.45V172.184H134.274V173.464ZM137.983 176.552C137.983 175.667 138.164 174.883 138.527 174.2C138.9 173.517 139.401 172.989 140.031 172.616C140.671 172.232 141.375 172.04 142.143 172.04C142.836 172.04 143.439 172.179 143.951 172.456C144.473 172.723 144.889 173.059 145.199 173.464V172.184H147.039V181H145.199V179.688C144.889 180.104 144.468 180.451 143.935 180.728C143.401 181.005 142.793 181.144 142.111 181.144C141.353 181.144 140.66 180.952 140.031 180.568C139.401 180.173 138.9 179.629 138.527 178.936C138.164 178.232 137.983 177.437 137.983 176.552ZM145.199 176.584C145.199 175.976 145.071 175.448 144.815 175C144.569 174.552 144.244 174.211 143.839 173.976C143.433 173.741 142.996 173.624 142.527 173.624C142.057 173.624 141.62 173.741 141.215 173.976C140.809 174.2 140.479 174.536 140.223 174.984C139.977 175.421 139.855 175.944 139.855 176.552C139.855 177.16 139.977 177.693 140.223 178.152C140.479 178.611 140.809 178.963 141.215 179.208C141.631 179.443 142.068 179.56 142.527 179.56C142.996 179.56 143.433 179.443 143.839 179.208C144.244 178.973 144.569 178.632 144.815 178.184C145.071 177.725 145.199 177.192 145.199 176.584ZM151.258 173.496C151.568 173.069 151.989 172.723 152.522 172.456C153.066 172.179 153.669 172.04 154.33 172.04C155.109 172.04 155.813 172.227 156.442 172.6C157.072 172.973 157.568 173.507 157.93 174.2C158.293 174.883 158.474 175.667 158.474 176.552C158.474 177.437 158.293 178.232 157.93 178.936C157.568 179.629 157.066 180.173 156.426 180.568C155.797 180.952 155.098 181.144 154.33 181.144C153.648 181.144 153.04 181.011 152.506 180.744C151.984 180.477 151.568 180.136 151.258 179.72V181H149.434V169.16H151.258V173.496ZM156.618 176.552C156.618 175.944 156.49 175.421 156.234 174.984C155.989 174.536 155.658 174.2 155.242 173.976C154.837 173.741 154.4 173.624 153.93 173.624C153.472 173.624 153.034 173.741 152.618 173.976C152.213 174.211 151.882 174.552 151.626 175C151.381 175.448 151.258 175.976 151.258 176.584C151.258 177.192 151.381 177.725 151.626 178.184C151.882 178.632 152.213 178.973 152.618 179.208C153.034 179.443 153.472 179.56 153.93 179.56C154.4 179.56 154.837 179.443 155.242 179.208C155.658 178.963 155.989 178.611 156.234 178.152C156.49 177.693 156.618 177.16 156.618 176.552ZM161.206 171.016C160.875 171.016 160.598 170.904 160.374 170.68C160.15 170.456 160.038 170.179 160.038 169.848C160.038 169.517 160.15 169.24 160.374 169.016C160.598 168.792 160.875 168.68 161.206 168.68C161.526 168.68 161.798 168.792 162.022 169.016C162.246 169.24 162.358 169.517 162.358 169.848C162.358 170.179 162.246 170.456 162.022 170.68C161.798 170.904 161.526 171.016 161.206 171.016ZM162.102 172.184V181H160.278V172.184H162.102ZM166.321 169.16V181H164.497V169.16H166.321ZM169.644 171.016C169.313 171.016 169.036 170.904 168.812 170.68C168.588 170.456 168.476 170.179 168.476 169.848C168.476 169.517 168.588 169.24 168.812 169.016C169.036 168.792 169.313 168.68 169.644 168.68C169.964 168.68 170.236 168.792 170.46 169.016C170.684 169.24 170.796 169.517 170.796 169.848C170.796 170.179 170.684 170.456 170.46 170.68C170.236 170.904 169.964 171.016 169.644 171.016ZM170.54 172.184V181H168.716V172.184H170.54ZM175.062 173.672V178.552C175.062 178.883 175.137 179.123 175.286 179.272C175.446 179.411 175.713 179.48 176.086 179.48H177.206V181H175.766C174.945 181 174.316 180.808 173.878 180.424C173.441 180.04 173.222 179.416 173.222 178.552V173.672H172.182V172.184H173.222V169.992H175.062V172.184H177.206V173.672H175.062ZM186.824 172.184L181.416 185.144H179.528L181.32 180.856L177.848 172.184H179.88L182.36 178.904L184.936 172.184H186.824Z" fill="#666666"/>
</g>
<defs>
<filter id="filter0_d_174_153" x="0" y="0" width="270" height="222" filterUnits="userSpaceOnUse" color-interpolation-filters="sRGB">
<feFlood flood-opacity="0" result="BackgroundImageFix"/>
<feColorMatrix in="SourceAlpha" type="matrix" values="0 0 0 0 0 0 0 0 0 0 0 0 0 0 0 0 0 0 127 0" result="hardAlpha"/>
<feMorphology radius="8" operator="erode" in="SourceAlpha" result="effect1_dropShadow_174_153"/>
<feOffset dy="2"/>
<feGaussianBlur stdDeviation="7.5"/>
<feComposite in2="hardAlpha" operator="out"/>
<feColorMatrix type="matrix" values="0 0 0 0 0.0784314 0 0 0 0 0.0313726 0 0 0 0 0.258824 0 0 0 0.28 0"/>
<feBlend mode="normal" in2="BackgroundImageFix" result="effect1_dropShadow_174_153"/>
<feBlend mode="normal" in="SourceGraphic" in2="effect1_dropShadow_174_153" result="shape"/>
</filter>
<linearGradient id="paint0_linear_174_153" x1="135" y1="5" x2="135" y2="213" gradientUnits="userSpaceOnUse">
<stop stop-color="#FCFCFC"/>
<stop offset="1" stop-color="#FAF5FF"/>
</linearGradient>
<linearGradient id="paint1_linear_174_153" x1="10.009" y1="72.9955" x2="106.431" y2="72.9955" gradientUnits="userSpaceOnUse">
<stop stop-color="#CBE0FF" stop-opacity="0"/>
<stop offset="1" stop-color="#D1D6FF"/>
</linearGradient>
<linearGradient id="paint2_linear_174_153" x1="256.009" y1="172.996" x2="352.431" y2="172.996" gradientUnits="userSpaceOnUse">
<stop stop-color="#CBE0FF" stop-opacity="0"/>
<stop offset="1" stop-color="#D1D6FF"/>
</linearGradient>
<linearGradient id="paint3_linear_174_153" x1="101" y1="32" x2="170.971" y2="99.9714" gradientUnits="userSpaceOnUse">
<stop stop-color="#A3D9FE" stop-opacity="0.6"/>
<stop offset="1" stop-color="#B5D0F5" stop-opacity="0.2"/>
</linearGradient>
<linearGradient id="paint4_linear_174_153" x1="135" y1="32" x2="135" y2="102" gradientUnits="userSpaceOnUse">
<stop stop-color="#D8ECFE"/>
<stop offset="1" stop-color="#70BDFF" stop-opacity="0"/>
</linearGradient>
<linearGradient id="paint5_linear_174_153" x1="107" y1="38" x2="164.964" y2="93.9655" gradientUnits="userSpaceOnUse">
<stop stop-color="#89C4FE"/>
<stop offset="1" stop-color="#84B4F4" stop-opacity="0.2"/>
</linearGradient>
<linearGradient id="paint6_linear_174_153" x1="135" y1="38" x2="135" y2="96" gradientUnits="userSpaceOnUse">
<stop stop-color="#DAEEFF"/>
<stop offset="1" stop-color="#70BDFF" stop-opacity="0"/>
</linearGradient>
<linearGradient id="paint7_linear_174_153" x1="114" y1="45" x2="157.952" y2="86.9546" gradientUnits="userSpaceOnUse">
<stop stop-color="#75AFFE"/>
<stop offset="1" stop-color="#2C90F5"/>
</linearGradient>
<linearGradient id="paint8_linear_174_153" x1="135" y1="45" x2="135" y2="89" gradientUnits="userSpaceOnUse">
<stop stop-color="#CBE7FF"/>
<stop offset="1" stop-color="#70BDFF" stop-opacity="0"/>
</linearGradient>
<clipPath id="clip0_174_153">
<rect width="92" height="100" fill="white" transform="translate(12 17)"/>
</clipPath>
<clipPath id="clip1_174_153">
<rect width="92" height="100" fill="white" transform="matrix(-1 0 0 -1 258 117)"/>
</clipPath>
</defs>
</svg>
