<svg width="270" height="222" viewBox="0 0 270 222" fill="none" xmlns="http://www.w3.org/2000/svg">
<g filter="url(#filter0_d_174_98)">
<rect x="7" y="5" width="256" height="208" rx="16" fill="url(#paint0_linear_174_98)"/>
<rect x="11.75" y="9.75" width="246.5" height="198.5" rx="13.25" stroke="#EBF0FF" stroke-width="1.5"/>
<g clip-path="url(#clip0_174_98)">
<mask id="mask0_174_98" style="mask-type:alpha" maskUnits="userSpaceOnUse" x="-23" y="27" width="127" height="86">
<path d="M15.625 48.25V48.3625H15.6716L15.7045 48.3295L15.625 48.25ZM20.875 43V42.8875H20.8284L20.7955 42.9205L20.875 43ZM33.625 43V43.1125H33.6652L33.6962 43.0871L33.625 43ZM37.75 39.625V39.5125H37.7098L37.6788 39.5379L37.75 39.625ZM40.9 39.625C40.9 39.9564 41.1686 40.225 41.5 40.225C41.8314 40.225 42.1 39.9564 42.1 39.625C42.1 39.2936 41.8314 39.025 41.5 39.025C41.1686 39.025 40.9 39.2936 40.9 39.625ZM-18.125 48.3625H15.625V48.1375H-18.125V48.3625ZM15.7045 48.3295L20.9545 43.0795L20.7955 42.9205L15.5455 48.1705L15.7045 48.3295ZM20.875 43.1125H33.625V42.8875H20.875V43.1125ZM33.6962 43.0871L37.8212 39.7121L37.6788 39.5379L33.5538 42.9129L33.6962 43.0871ZM37.75 39.7375H41.5V39.5125H37.75V39.7375Z" fill="black"/>
<path d="M19.375 53.875V53.9875H19.4182L19.4503 53.9586L19.375 53.875ZM23.125 50.5V50.3875H23.0818L23.0497 50.4164L23.125 50.5ZM35.125 50.5V50.6125H35.1645L35.1953 50.5878L35.125 50.5ZM38.875 47.5V47.3875H38.8355L38.8047 47.4122L38.875 47.5ZM52.15 47.5C52.15 47.8314 52.4186 48.1 52.75 48.1C53.0814 48.1 53.35 47.8314 53.35 47.5C53.35 47.1686 53.0814 46.9 52.75 46.9C52.4186 46.9 52.15 47.1686 52.15 47.5ZM-9.125 53.9875H19.375V53.7625H-9.125V53.9875ZM19.4503 53.9586L23.2003 50.5836L23.0497 50.4164L19.2997 53.7914L19.4503 53.9586ZM23.125 50.6125H35.125V50.3875H23.125V50.6125ZM35.1953 50.5878L38.9453 47.5878L38.8047 47.4122L35.0547 50.4122L35.1953 50.5878ZM38.875 47.6125H52.75V47.3875H38.875V47.6125Z" fill="black"/>
<path d="M32.75 61.75C32.75 62.0261 32.9739 62.25 33.25 62.25C33.5261 62.25 33.75 62.0261 33.75 61.75C33.75 61.4739 33.5261 61.25 33.25 61.25C32.9739 61.25 32.75 61.4739 32.75 61.75ZM37.75 61.75L37.8003 61.6709L37.7773 61.6562H37.75V61.75ZM41.875 64.375L41.8247 64.4541L41.8477 64.4688H41.875V64.375ZM46.375 64.375V64.4688H46.4138L46.4413 64.4413L46.375 64.375ZM51.25 59.5V59.4062H51.2112L51.1837 59.4337L51.25 59.5ZM60.125 59.5C60.125 59.7761 60.3489 60 60.625 60C60.9011 60 61.125 59.7761 61.125 59.5C61.125 59.2239 60.9011 59 60.625 59C60.3489 59 60.125 59.2239 60.125 59.5ZM33.25 61.8438H37.75V61.6562H33.25V61.8438ZM37.6997 61.8291L41.8247 64.4541L41.9253 64.2959L37.8003 61.6709L37.6997 61.8291ZM41.875 64.4688H46.375V64.2812H41.875V64.4688ZM46.4413 64.4413L51.3163 59.5663L51.1837 59.4337L46.3087 64.3087L46.4413 64.4413ZM51.25 59.5938H60.625V59.4062H51.25V59.5938Z" fill="black"/>
<path d="M27 60.25C27 60.8023 27.4477 61.25 28 61.25C28.5523 61.25 29 60.8023 29 60.25C29 59.6977 28.5523 59.25 28 59.25C27.4477 59.25 27 59.6977 27 60.25ZM32.875 60.25V60.4375H32.9408L32.9921 60.3964L32.875 60.25ZM36.625 57.25V57.0625H36.5592L36.5079 57.1036L36.625 57.25ZM50.5 57.25V57.4375H50.5739L50.6279 57.3871L50.5 57.25ZM56.125 52V51.8125H56.0511L55.9971 51.8629L56.125 52ZM77.625 52C77.625 52.5523 78.0727 53 78.625 53C79.1773 53 79.625 52.5523 79.625 52C79.625 51.4477 79.1773 51 78.625 51C78.0727 51 77.625 51.4477 77.625 52ZM28 60.4375H32.875V60.0625H28V60.4375ZM32.9921 60.3964L36.7421 57.3964L36.5079 57.1036L32.7579 60.1036L32.9921 60.3964ZM36.625 57.4375H50.5V57.0625H36.625V57.4375ZM50.6279 57.3871L56.2529 52.1371L55.9971 51.8629L50.3721 57.1129L50.6279 57.3871ZM56.125 52.1875H78.625V51.8125H56.125V52.1875Z" fill="black"/>
<path d="M23.375 80.5C23.375 80.7761 23.5989 81 23.875 81C24.1511 81 24.375 80.7761 24.375 80.5C24.375 80.2239 24.1511 80 23.875 80C23.5989 80 23.375 80.2239 23.375 80.5ZM27.625 80.5V80.5938H27.6562L27.6813 80.575L27.625 80.5ZM32.125 77.125V77.0312H32.0938L32.0688 77.05L32.125 77.125ZM44.875 77.125V77.2188H44.9115L44.9383 77.1941L44.875 77.125ZM49.375 73V72.9062H49.3385L49.3117 72.9309L49.375 73ZM56.75 73C56.75 73.2761 56.9739 73.5 57.25 73.5C57.5261 73.5 57.75 73.2761 57.75 73C57.75 72.7239 57.5261 72.5 57.25 72.5C56.9739 72.5 56.75 72.7239 56.75 73ZM23.875 80.5938H27.625V80.4062H23.875V80.5938ZM27.6813 80.575L32.1812 77.2L32.0688 77.05L27.5687 80.425L27.6813 80.575ZM32.125 77.2188H44.875V77.0312H32.125V77.2188ZM44.9383 77.1941L49.4383 73.0691L49.3117 72.9309L44.8117 77.0559L44.9383 77.1941ZM49.375 73.0938H57.25V72.9062H49.375V73.0938Z" fill="black"/>
<path d="M35 79.75C35 80.0261 35.2239 80.25 35.5 80.25C35.7761 80.25 36 80.0261 36 79.75C36 79.4739 35.7761 79.25 35.5 79.25C35.2239 79.25 35 79.4739 35 79.75ZM48.25 79.75V79.8438H48.2839L48.31 79.822L48.25 79.75ZM50.5 77.875V77.7812H50.4661L50.44 77.803L50.5 77.875ZM56.125 77.875V77.9688H56.1604L56.187 77.9453L56.125 77.875ZM62.5 72.25V72.1562H62.4646L62.438 72.1797L62.5 72.25ZM73.25 72.25C73.25 72.5261 73.4739 72.75 73.75 72.75C74.0261 72.75 74.25 72.5261 74.25 72.25C74.25 71.9739 74.0261 71.75 73.75 71.75C73.4739 71.75 73.25 71.9739 73.25 72.25ZM35.5 79.8438H48.25V79.6562H35.5V79.8438ZM48.31 79.822L50.56 77.947L50.44 77.803L48.19 79.678L48.31 79.822ZM50.5 77.9688H56.125V77.7812H50.5V77.9688ZM56.187 77.9453L62.562 72.3203L62.438 72.1797L56.063 77.8047L56.187 77.9453ZM62.5 72.3438H73.75V72.1562H62.5V72.3438Z" fill="black"/>
<path d="M46.7 92.125C46.7 92.5668 47.0582 92.925 47.5 92.925C47.9418 92.925 48.3 92.5668 48.3 92.125C48.3 91.6832 47.9418 91.325 47.5 91.325C47.0582 91.325 46.7 91.6832 46.7 92.125ZM62.875 92.125V92.275H62.932L62.9747 92.2371L62.875 92.125ZM66.25 89.125V88.975H66.193L66.1503 89.0129L66.25 89.125ZM78.625 89.125V89.275H78.6914L78.736 89.2259L78.625 89.125ZM82.375 85V84.85H82.3086L82.264 84.8991L82.375 85ZM94.75 85L94.8514 84.8894L94.8083 84.85H94.75V85ZM98.45 89.125C98.45 89.5668 98.8082 89.925 99.25 89.925C99.6918 89.925 100.05 89.5668 100.05 89.125C100.05 88.6832 99.6918 88.325 99.25 88.325C98.8082 88.325 98.45 88.6832 98.45 89.125ZM47.5 92.275H62.875V91.975H47.5V92.275ZM62.9747 92.2371L66.3497 89.2371L66.1503 89.0129L62.7753 92.0129L62.9747 92.2371ZM66.25 89.275H78.625V88.975H66.25V89.275ZM78.736 89.2259L82.486 85.1009L82.264 84.8991L78.514 89.0241L78.736 89.2259ZM82.375 85.15H94.75V84.85H82.375V85.15ZM94.6486 85.1106L99.1486 89.2356L99.3514 89.0144L94.8514 84.8894L94.6486 85.1106Z" fill="black"/>
<path d="M25 91L25.1014 90.8894L25.0583 90.85H25V91ZM29.5 95.125L29.3986 95.2356L29.4417 95.275H29.5V95.125ZM32.45 95.125C32.45 95.5668 32.8082 95.925 33.25 95.925C33.6918 95.925 34.05 95.5668 34.05 95.125C34.05 94.6832 33.6918 94.325 33.25 94.325C32.8082 94.325 32.45 94.6832 32.45 95.125ZM-22.625 91.15H25V90.85H-22.625V91.15ZM24.8986 91.1106L29.3986 95.2356L29.6014 95.0144L25.1014 90.8894L24.8986 91.1106ZM29.5 95.275H33.25V94.975H29.5V95.275Z" fill="black"/>
<path d="M14.125 102.25V102.344H14.1514L14.1739 102.33L14.125 102.25ZM20.875 98.125V98.0312H20.8486L20.8261 98.045L20.875 98.125ZM26.375 98.125C26.375 98.4011 26.5989 98.625 26.875 98.625C27.1511 98.625 27.375 98.4011 27.375 98.125C27.375 97.8489 27.1511 97.625 26.875 97.625C26.5989 97.625 26.375 97.8489 26.375 98.125ZM-22.625 102.344H14.125V102.156H-22.625V102.344ZM14.1739 102.33L20.9239 98.205L20.8261 98.045L14.0761 102.17L14.1739 102.33ZM20.875 98.2188H26.875V98.0312H20.875V98.2188Z" fill="black"/>
<path d="M19 109V109.094H19.034L19.0602 109.072L19 109ZM37.375 93.625V93.5312H37.341L37.3148 93.5531L37.375 93.625ZM65.5 93.625L65.5494 93.5453L65.5267 93.5312H65.5V93.625ZM76.375 100.375L76.3256 100.455L76.3483 100.469H76.375V100.375ZM82.25 100.375C82.25 100.651 82.4739 100.875 82.75 100.875C83.0261 100.875 83.25 100.651 83.25 100.375C83.25 100.099 83.0261 99.875 82.75 99.875C82.4739 99.875 82.25 100.099 82.25 100.375ZM-22.625 109.094H19V108.906H-22.625V109.094ZM19.0602 109.072L37.4352 93.6969L37.3148 93.5531L18.9398 108.928L19.0602 109.072ZM37.375 93.7188H65.5V93.5312H37.375V93.7188ZM65.4506 93.7047L76.3256 100.455L76.4244 100.295L65.5494 93.5453L65.4506 93.7047ZM76.375 100.469H82.75V100.281H76.375V100.469Z" fill="black"/>
<path d="M19.75 112V112.319H19.876L19.968 112.233L19.75 112ZM25.75 106.375V106.056H25.624L25.532 106.142L25.75 106.375ZM38.5 106.375V106.694H38.6063L38.6912 106.63L38.5 106.375ZM47.5 99.625V99.3062H47.3938L47.3087 99.37L47.5 99.625ZM58.55 99.625C58.55 100.564 59.3111 101.325 60.25 101.325C61.1889 101.325 61.95 100.564 61.95 99.625C61.95 98.6861 61.1889 97.925 60.25 97.925C59.3111 97.925 58.55 98.6861 58.55 99.625ZM-23 112.319H19.75V111.681H-23V112.319ZM19.968 112.233L25.968 106.608L25.532 106.142L19.532 111.767L19.968 112.233ZM25.75 106.694H38.5V106.056H25.75V106.694ZM38.6912 106.63L47.6913 99.88L47.3087 99.37L38.3088 106.12L38.6912 106.63ZM47.5 99.9438H60.25V99.3062H47.5V99.9438Z" fill="black"/>
<path d="M31 83.5L31.2124 83.191L31.1165 83.125H31V83.5ZM37 87.625L36.7876 87.934L36.8835 88H37V87.625ZM50.5 87.625V88H50.6483L50.7565 87.8986L50.5 87.625ZM62.5 76.375V76H62.3517L62.2435 76.1014L62.5 76.375ZM75.875 76.375C75.875 77.4796 76.7704 78.375 77.875 78.375C78.9796 78.375 79.875 77.4796 79.875 76.375C79.875 75.2704 78.9796 74.375 77.875 74.375C76.7704 74.375 75.875 75.2704 75.875 76.375ZM-23 83.875H31V83.125H-23V83.875ZM30.7876 83.809L36.7876 87.934L37.2124 87.316L31.2124 83.191L30.7876 83.809ZM37 88H50.5V87.25H37V88ZM50.7565 87.8986L62.7565 76.6486L62.2435 76.1014L50.2435 87.3514L50.7565 87.8986ZM62.5 76.75H77.875V76H62.5V76.75Z" fill="black"/>
<path d="M-1.25 56.875L-1.06697 56.6615L-1.14596 56.5938H-1.25V56.875ZM4 61.375L3.81697 61.5885L3.89596 61.6562H4V61.375ZM19 61.375V61.6562H19.1087L19.1892 61.5831L19 61.375ZM27.25 53.875V53.5938H27.1413L27.0608 53.6669L27.25 53.875ZM41.125 53.875C41.125 54.7034 41.7966 55.375 42.625 55.375C43.4534 55.375 44.125 54.7034 44.125 53.875C44.125 53.0466 43.4534 52.375 42.625 52.375C41.7966 52.375 41.125 53.0466 41.125 53.875ZM-23 57.1562H-1.25V56.5938H-23V57.1562ZM-1.43303 57.0885L3.81697 61.5885L4.18303 61.1615L-1.06697 56.6615L-1.43303 57.0885ZM4 61.6562H19V61.0938H4V61.6562ZM19.1892 61.5831L27.4392 54.0831L27.0608 53.6669L18.8108 61.1669L19.1892 61.5831ZM27.25 54.1562H42.625V53.5938H27.25V54.1562Z" fill="black"/>
<path d="M19.75 28L19.983 27.7825L19.8885 27.6812H19.75V28ZM25 33.625L24.767 33.8425L24.8615 33.9437H25V33.625ZM38.5 33.625L38.7041 33.3801L38.6154 33.3063H38.5V33.625ZM47.5 41.125L47.2959 41.3699L47.3846 41.4438H47.5V41.125ZM58.55 41.125C58.55 42.0639 59.3111 42.825 60.25 42.825C61.1889 42.825 61.95 42.0639 61.95 41.125C61.95 40.1861 61.1889 39.425 60.25 39.425C59.3111 39.425 58.55 40.1861 58.55 41.125ZM-23 28.3188H19.75V27.6812H-23V28.3188ZM19.517 28.2175L24.767 33.8425L25.233 33.4075L19.983 27.7825L19.517 28.2175ZM25 33.9437H38.5V33.3063H25V33.9437ZM38.2959 33.8699L47.2959 41.3699L47.7041 40.8801L38.7041 33.3801L38.2959 33.8699ZM47.5 41.4438H60.25V40.8062H47.5V41.4438Z" fill="black"/>
<path d="M13 64L13.104 63.844L13.0568 63.8125H13V64ZM16.375 66.25L16.271 66.406L16.3182 66.4375H16.375V66.25ZM59.5 66.25V66.4375H59.572L59.6254 66.3894L59.5 66.25ZM67 59.5V59.3125H66.928L66.8746 59.3606L67 59.5ZM83.5 59.5V59.6875H83.5425L83.5809 59.6692L83.5 59.5ZM92.125 55.375V55.1875H92.0825L92.0441 55.2058L92.125 55.375ZM101.25 55.375C101.25 55.9273 101.698 56.375 102.25 56.375C102.802 56.375 103.25 55.9273 103.25 55.375C103.25 54.8227 102.802 54.375 102.25 54.375C101.698 54.375 101.25 54.8227 101.25 55.375ZM-23 64.1875H13V63.8125H-23V64.1875ZM12.896 64.156L16.271 66.406L16.479 66.094L13.104 63.844L12.896 64.156ZM16.375 66.4375H59.5V66.0625H16.375V66.4375ZM59.6254 66.3894L67.1254 59.6394L66.8746 59.3606L59.3746 66.1106L59.6254 66.3894ZM67 59.6875H83.5V59.3125H67V59.6875ZM83.5809 59.6692L92.2059 55.5442L92.0441 55.2058L83.4191 59.3308L83.5809 59.6692ZM92.125 55.5625H102.25V55.1875H92.125V55.5625Z" fill="black"/>
<path d="M56 85C56 85.2761 56.2239 85.5 56.5 85.5C56.7761 85.5 57 85.2761 57 85C57 84.7239 56.7761 84.5 56.5 84.5C56.2239 84.5 56 84.7239 56 85ZM58.75 85V85.0938H58.7888L58.8163 85.0663L58.75 85ZM65.5 78.25V78.1562H65.4612L65.4337 78.1837L65.5 78.25ZM73.375 78.25L73.453 78.198L73.4252 78.1562H73.375V78.25ZM74.875 80.5L74.797 80.552L74.8248 80.5938H74.875V80.5ZM81.125 80.5C81.125 80.7761 81.3489 81 81.625 81C81.9011 81 82.125 80.7761 82.125 80.5C82.125 80.2239 81.9011 80 81.625 80C81.3489 80 81.125 80.2239 81.125 80.5ZM56.5 85.0938H58.75V84.9062H56.5V85.0938ZM58.8163 85.0663L65.5663 78.3163L65.4337 78.1837L58.6837 84.9337L58.8163 85.0663ZM65.5 78.3438H73.375V78.1562H65.5V78.3438ZM73.297 78.302L74.797 80.552L74.953 80.448L73.453 78.198L73.297 78.302ZM74.875 80.5938H81.625V80.4062H74.875V80.5938Z" fill="black"/>
</mask>
<g mask="url(#mask0_174_98)">
<rect x="12" y="17" width="95" height="111" fill="url(#paint1_linear_174_98)"/>
</g>
</g>
<g clip-path="url(#clip1_174_98)">
<mask id="mask1_174_98" style="mask-type:alpha" maskUnits="userSpaceOnUse" x="166" y="21" width="127" height="86">
<path d="M254.375 85.75V85.6375H254.328L254.295 85.6705L254.375 85.75ZM249.125 91V91.1125H249.172L249.205 91.0795L249.125 91ZM236.375 91V90.8875H236.335L236.304 90.9129L236.375 91ZM232.25 94.375V94.4875H232.29L232.321 94.4621L232.25 94.375ZM229.1 94.375C229.1 94.0436 228.831 93.775 228.5 93.775C228.169 93.775 227.9 94.0436 227.9 94.375C227.9 94.7064 228.169 94.975 228.5 94.975C228.831 94.975 229.1 94.7064 229.1 94.375ZM288.125 85.6375H254.375V85.8625H288.125V85.6375ZM254.295 85.6705L249.045 90.9205L249.205 91.0795L254.455 85.8295L254.295 85.6705ZM249.125 90.8875H236.375V91.1125H249.125V90.8875ZM236.304 90.9129L232.179 94.2879L232.321 94.4621L236.446 91.0871L236.304 90.9129ZM232.25 94.2625H228.5V94.4875H232.25V94.2625Z" fill="black"/>
<path d="M250.625 80.125V80.0125H250.582L250.55 80.0414L250.625 80.125ZM246.875 83.5V83.6125H246.918L246.95 83.5836L246.875 83.5ZM234.875 83.5V83.3875H234.836L234.805 83.4122L234.875 83.5ZM231.125 86.5V86.6125H231.164L231.195 86.5878L231.125 86.5ZM217.85 86.5C217.85 86.1686 217.581 85.9 217.25 85.9C216.919 85.9 216.65 86.1686 216.65 86.5C216.65 86.8314 216.919 87.1 217.25 87.1C217.581 87.1 217.85 86.8314 217.85 86.5ZM279.125 80.0125H250.625V80.2375H279.125V80.0125ZM250.55 80.0414L246.8 83.4164L246.95 83.5836L250.7 80.2086L250.55 80.0414ZM246.875 83.3875H234.875V83.6125H246.875V83.3875ZM234.805 83.4122L231.055 86.4122L231.195 86.5878L234.945 83.5878L234.805 83.4122ZM231.125 86.3875H217.25V86.6125H231.125V86.3875Z" fill="black"/>
<path d="M237.25 72.25C237.25 71.9739 237.026 71.75 236.75 71.75C236.474 71.75 236.25 71.9739 236.25 72.25C236.25 72.5261 236.474 72.75 236.75 72.75C237.026 72.75 237.25 72.5261 237.25 72.25ZM232.25 72.25L232.2 72.3291L232.223 72.3438H232.25V72.25ZM228.125 69.625L228.175 69.5459L228.152 69.5312H228.125V69.625ZM223.625 69.625V69.5312H223.586L223.559 69.5587L223.625 69.625ZM218.75 74.5V74.5938H218.789L218.816 74.5663L218.75 74.5ZM209.875 74.5C209.875 74.2239 209.651 74 209.375 74C209.099 74 208.875 74.2239 208.875 74.5C208.875 74.7761 209.099 75 209.375 75C209.651 75 209.875 74.7761 209.875 74.5ZM236.75 72.1562H232.25V72.3438H236.75V72.1562ZM232.3 72.1709L228.175 69.5459L228.075 69.7041L232.2 72.3291L232.3 72.1709ZM228.125 69.5312H223.625V69.7188H228.125V69.5312ZM223.559 69.5587L218.684 74.4337L218.816 74.5663L223.691 69.6913L223.559 69.5587ZM218.75 74.4062H209.375V74.5938H218.75V74.4062Z" fill="black"/>
<path d="M243 73.75C243 73.1977 242.552 72.75 242 72.75C241.448 72.75 241 73.1977 241 73.75C241 74.3023 241.448 74.75 242 74.75C242.552 74.75 243 74.3023 243 73.75ZM237.125 73.75V73.5625H237.059L237.008 73.6036L237.125 73.75ZM233.375 76.75V76.9375H233.441L233.492 76.8964L233.375 76.75ZM219.5 76.75V76.5625H219.426L219.372 76.6129L219.5 76.75ZM213.875 82V82.1875H213.949L214.003 82.1371L213.875 82ZM192.375 82C192.375 81.4477 191.927 81 191.375 81C190.823 81 190.375 81.4477 190.375 82C190.375 82.5523 190.823 83 191.375 83C191.927 83 192.375 82.5523 192.375 82ZM242 73.5625H237.125V73.9375H242V73.5625ZM237.008 73.6036L233.258 76.6036L233.492 76.8964L237.242 73.8964L237.008 73.6036ZM233.375 76.5625H219.5V76.9375H233.375V76.5625ZM219.372 76.6129L213.747 81.8629L214.003 82.1371L219.628 76.8871L219.372 76.6129ZM213.875 81.8125H191.375V82.1875H213.875V81.8125Z" fill="black"/>
<path d="M246.625 53.5C246.625 53.2239 246.401 53 246.125 53C245.849 53 245.625 53.2239 245.625 53.5C245.625 53.7761 245.849 54 246.125 54C246.401 54 246.625 53.7761 246.625 53.5ZM242.375 53.5V53.4062H242.344L242.319 53.425L242.375 53.5ZM237.875 56.875V56.9688H237.906L237.931 56.95L237.875 56.875ZM225.125 56.875V56.7812H225.089L225.062 56.8059L225.125 56.875ZM220.625 61V61.0938H220.661L220.688 61.0691L220.625 61ZM213.25 61C213.25 60.7239 213.026 60.5 212.75 60.5C212.474 60.5 212.25 60.7239 212.25 61C212.25 61.2761 212.474 61.5 212.75 61.5C213.026 61.5 213.25 61.2761 213.25 61ZM246.125 53.4062H242.375V53.5938H246.125V53.4062ZM242.319 53.425L237.819 56.8L237.931 56.95L242.431 53.575L242.319 53.425ZM237.875 56.7812H225.125V56.9688H237.875V56.7812ZM225.062 56.8059L220.562 60.9309L220.688 61.0691L225.188 56.9441L225.062 56.8059ZM220.625 60.9062H212.75V61.0938H220.625V60.9062Z" fill="black"/>
<path d="M235 54.25C235 53.9739 234.776 53.75 234.5 53.75C234.224 53.75 234 53.9739 234 54.25C234 54.5261 234.224 54.75 234.5 54.75C234.776 54.75 235 54.5261 235 54.25ZM221.75 54.25V54.1562H221.716L221.69 54.178L221.75 54.25ZM219.5 56.125V56.2188H219.534L219.56 56.197L219.5 56.125ZM213.875 56.125V56.0312H213.84L213.813 56.0547L213.875 56.125ZM207.5 61.75V61.8438H207.535L207.562 61.8203L207.5 61.75ZM196.75 61.75C196.75 61.4739 196.526 61.25 196.25 61.25C195.974 61.25 195.75 61.4739 195.75 61.75C195.75 62.0261 195.974 62.25 196.25 62.25C196.526 62.25 196.75 62.0261 196.75 61.75ZM234.5 54.1562H221.75V54.3438H234.5V54.1562ZM221.69 54.178L219.44 56.053L219.56 56.197L221.81 54.322L221.69 54.178ZM219.5 56.0312H213.875V56.2188H219.5V56.0312ZM213.813 56.0547L207.438 61.6797L207.562 61.8203L213.937 56.1953L213.813 56.0547ZM207.5 61.6562H196.25V61.8438H207.5V61.6562Z" fill="black"/>
<path d="M223.3 41.875C223.3 41.4332 222.942 41.075 222.5 41.075C222.058 41.075 221.7 41.4332 221.7 41.875C221.7 42.3168 222.058 42.675 222.5 42.675C222.942 42.675 223.3 42.3168 223.3 41.875ZM207.125 41.875V41.725H207.068L207.025 41.7629L207.125 41.875ZM203.75 44.875V45.025H203.807L203.85 44.9871L203.75 44.875ZM191.375 44.875V44.725H191.309L191.264 44.7741L191.375 44.875ZM187.625 49V49.15H187.691L187.736 49.1009L187.625 49ZM175.25 49L175.149 49.1106L175.192 49.15H175.25V49ZM171.55 44.875C171.55 44.4332 171.192 44.075 170.75 44.075C170.308 44.075 169.95 44.4332 169.95 44.875C169.95 45.3168 170.308 45.675 170.75 45.675C171.192 45.675 171.55 45.3168 171.55 44.875ZM222.5 41.725H207.125V42.025H222.5V41.725ZM207.025 41.7629L203.65 44.7629L203.85 44.9871L207.225 41.9871L207.025 41.7629ZM203.75 44.725H191.375V45.025H203.75V44.725ZM191.264 44.7741L187.514 48.8991L187.736 49.1009L191.486 44.9759L191.264 44.7741ZM187.625 48.85H175.25V49.15H187.625V48.85ZM175.351 48.8894L170.851 44.7644L170.649 44.9856L175.149 49.1106L175.351 48.8894Z" fill="black"/>
<path d="M245 43L244.899 43.1106L244.942 43.15H245V43ZM240.5 38.875L240.601 38.7644L240.558 38.725H240.5V38.875ZM237.55 38.875C237.55 38.4332 237.192 38.075 236.75 38.075C236.308 38.075 235.95 38.4332 235.95 38.875C235.95 39.3168 236.308 39.675 236.75 39.675C237.192 39.675 237.55 39.3168 237.55 38.875ZM292.625 42.85H245V43.15H292.625V42.85ZM245.101 42.8894L240.601 38.7644L240.399 38.9856L244.899 43.1106L245.101 42.8894ZM240.5 38.725H236.75V39.025H240.5V38.725Z" fill="black"/>
<path d="M255.875 31.75V31.6562H255.849L255.826 31.67L255.875 31.75ZM249.125 35.875V35.9688H249.151L249.174 35.955L249.125 35.875ZM243.625 35.875C243.625 35.5989 243.401 35.375 243.125 35.375C242.849 35.375 242.625 35.5989 242.625 35.875C242.625 36.1511 242.849 36.375 243.125 36.375C243.401 36.375 243.625 36.1511 243.625 35.875ZM292.625 31.6562H255.875V31.8438H292.625V31.6562ZM255.826 31.67L249.076 35.795L249.174 35.955L255.924 31.83L255.826 31.67ZM249.125 35.7812H243.125V35.9688H249.125V35.7812Z" fill="black"/>
<path d="M251 25V24.9062H250.966L250.94 24.9281L251 25ZM232.625 40.375V40.4688H232.659L232.685 40.4469L232.625 40.375ZM204.5 40.375L204.451 40.4547L204.473 40.4688H204.5V40.375ZM193.625 33.625L193.674 33.5453L193.652 33.5312H193.625V33.625ZM187.75 33.625C187.75 33.3489 187.526 33.125 187.25 33.125C186.974 33.125 186.75 33.3489 186.75 33.625C186.75 33.9011 186.974 34.125 187.25 34.125C187.526 34.125 187.75 33.9011 187.75 33.625ZM292.625 24.9062H251V25.0938H292.625V24.9062ZM250.94 24.9281L232.565 40.3031L232.685 40.4469L251.06 25.0719L250.94 24.9281ZM232.625 40.2812H204.5V40.4688H232.625V40.2812ZM204.549 40.2953L193.674 33.5453L193.576 33.7047L204.451 40.4547L204.549 40.2953ZM193.625 33.5312H187.25V33.7188H193.625V33.5312Z" fill="black"/>
<path d="M250.25 22V21.6812H250.124L250.032 21.7675L250.25 22ZM244.25 27.625V27.9437H244.376L244.468 27.8575L244.25 27.625ZM231.5 27.625V27.3063H231.394L231.309 27.37L231.5 27.625ZM222.5 34.375V34.6938H222.606L222.691 34.63L222.5 34.375ZM211.45 34.375C211.45 33.4361 210.689 32.675 209.75 32.675C208.811 32.675 208.05 33.4361 208.05 34.375C208.05 35.3139 208.811 36.075 209.75 36.075C210.689 36.075 211.45 35.3139 211.45 34.375ZM293 21.6812H250.25V22.3188H293V21.6812ZM250.032 21.7675L244.032 27.3925L244.468 27.8575L250.468 22.2325L250.032 21.7675ZM244.25 27.3063H231.5V27.9437H244.25V27.3063ZM231.309 27.37L222.309 34.12L222.691 34.63L231.691 27.88L231.309 27.37ZM222.5 34.0562H209.75V34.6938H222.5V34.0562Z" fill="black"/>
<path d="M239 50.5L238.788 50.809L238.884 50.875H239V50.5ZM233 46.375L233.212 46.066L233.116 46H233V46.375ZM219.5 46.375V46H219.352L219.244 46.1014L219.5 46.375ZM207.5 57.625V58H207.648L207.756 57.8986L207.5 57.625ZM194.125 57.625C194.125 56.5204 193.23 55.625 192.125 55.625C191.02 55.625 190.125 56.5204 190.125 57.625C190.125 58.7296 191.02 59.625 192.125 59.625C193.23 59.625 194.125 58.7296 194.125 57.625ZM293 50.125H239V50.875H293V50.125ZM239.212 50.191L233.212 46.066L232.788 46.684L238.788 50.809L239.212 50.191ZM233 46H219.5V46.75H233V46ZM219.244 46.1014L207.244 57.3514L207.756 57.8986L219.756 46.6486L219.244 46.1014ZM207.5 57.25H192.125V58H207.5V57.25Z" fill="black"/>
<path d="M271.25 77.125L271.067 77.3385L271.146 77.4062H271.25V77.125ZM266 72.625L266.183 72.4115L266.104 72.3438H266V72.625ZM251 72.625V72.3438H250.891L250.811 72.4169L251 72.625ZM242.75 80.125V80.4062H242.859L242.939 80.3331L242.75 80.125ZM228.875 80.125C228.875 79.2966 228.203 78.625 227.375 78.625C226.547 78.625 225.875 79.2966 225.875 80.125C225.875 80.9534 226.547 81.625 227.375 81.625C228.203 81.625 228.875 80.9534 228.875 80.125ZM293 76.8438H271.25V77.4062H293V76.8438ZM271.433 76.9115L266.183 72.4115L265.817 72.8385L271.067 77.3385L271.433 76.9115ZM266 72.3438H251V72.9062H266V72.3438ZM250.811 72.4169L242.561 79.9169L242.939 80.3331L251.189 72.8331L250.811 72.4169ZM242.75 79.8438H227.375V80.4062H242.75V79.8438Z" fill="black"/>
<path d="M250.25 106L250.017 106.217L250.111 106.319H250.25V106ZM245 100.375L245.233 100.158L245.139 100.056H245V100.375ZM231.5 100.375L231.296 100.62L231.385 100.694H231.5V100.375ZM222.5 92.875L222.704 92.6301L222.615 92.5562H222.5V92.875ZM211.45 92.875C211.45 91.9361 210.689 91.175 209.75 91.175C208.811 91.175 208.05 91.9361 208.05 92.875C208.05 93.8139 208.811 94.575 209.75 94.575C210.689 94.575 211.45 93.8139 211.45 92.875ZM293 105.681H250.25V106.319H293V105.681ZM250.483 105.783L245.233 100.158L244.767 100.592L250.017 106.217L250.483 105.783ZM245 100.056H231.5V100.694H245V100.056ZM231.704 100.13L222.704 92.6301L222.296 93.1199L231.296 100.62L231.704 100.13ZM222.5 92.5562H209.75V93.1938H222.5V92.5562Z" fill="black"/>
<path d="M257 70L256.896 70.156L256.943 70.1875H257V70ZM253.625 67.75L253.729 67.594L253.682 67.5625H253.625V67.75ZM210.5 67.75V67.5625H210.428L210.375 67.6106L210.5 67.75ZM203 74.5V74.6875H203.072L203.125 74.6394L203 74.5ZM186.5 74.5V74.3125H186.457L186.419 74.3308L186.5 74.5ZM177.875 78.625V78.8125H177.918L177.956 78.7942L177.875 78.625ZM168.75 78.625C168.75 78.0727 168.302 77.625 167.75 77.625C167.198 77.625 166.75 78.0727 166.75 78.625C166.75 79.1773 167.198 79.625 167.75 79.625C168.302 79.625 168.75 79.1773 168.75 78.625ZM293 69.8125H257V70.1875H293V69.8125ZM257.104 69.844L253.729 67.594L253.521 67.906L256.896 70.156L257.104 69.844ZM253.625 67.5625H210.5V67.9375H253.625V67.5625ZM210.375 67.6106L202.875 74.3606L203.125 74.6394L210.625 67.8894L210.375 67.6106ZM203 74.3125H186.5V74.6875H203V74.3125ZM186.419 74.3308L177.794 78.4558L177.956 78.7942L186.581 74.6692L186.419 74.3308ZM177.875 78.4375H167.75V78.8125H177.875V78.4375Z" fill="black"/>
<path d="M214 49C214 48.7239 213.776 48.5 213.5 48.5C213.224 48.5 213 48.7239 213 49C213 49.2761 213.224 49.5 213.5 49.5C213.776 49.5 214 49.2761 214 49ZM211.25 49V48.9062H211.211L211.184 48.9337L211.25 49ZM204.5 55.75V55.8438H204.539L204.566 55.8163L204.5 55.75ZM196.625 55.75L196.547 55.802L196.575 55.8438H196.625V55.75ZM195.125 53.5L195.203 53.448L195.175 53.4062H195.125V53.5ZM188.875 53.5C188.875 53.2239 188.651 53 188.375 53C188.099 53 187.875 53.2239 187.875 53.5C187.875 53.7761 188.099 54 188.375 54C188.651 54 188.875 53.7761 188.875 53.5ZM213.5 48.9062H211.25V49.0938H213.5V48.9062ZM211.184 48.9337L204.434 55.6837L204.566 55.8163L211.316 49.0663L211.184 48.9337ZM204.5 55.6562H196.625V55.8438H204.5V55.6562ZM196.703 55.698L195.203 53.448L195.047 53.552L196.547 55.802L196.703 55.698ZM195.125 53.4062H188.375V53.5938H195.125V53.4062Z" fill="black"/>
</mask>
<g mask="url(#mask1_174_98)">
<rect x="258" y="117" width="95" height="111" transform="rotate(180 258 117)" fill="url(#paint2_linear_174_98)"/>
</g>
</g>
<circle cx="135" cy="67" r="34.75" fill="url(#paint3_linear_174_98)" stroke="url(#paint4_linear_174_98)" stroke-width="0.5"/>
<circle cx="135" cy="67" r="28.625" fill="url(#paint5_linear_174_98)" stroke="url(#paint6_linear_174_98)" stroke-width="0.75"/>
<circle cx="135" cy="67" r="21.625" fill="url(#paint7_linear_174_98)" stroke="url(#paint8_linear_174_98)" stroke-width="0.75"/>
<path d="M128.125 60.8438H141.875" stroke="white" stroke-width="1.71875" stroke-miterlimit="10" stroke-linecap="round" stroke-linejoin="round"/>
<path d="M131.562 60.8438V59.2969C131.562 57.3984 133.102 55.8594 135 55.8594C136.898 55.8594 138.438 57.3984 138.438 59.2969V60.8438" stroke="white" stroke-width="1.71875" stroke-miterlimit="10" stroke-linecap="round" stroke-linejoin="round"/>
<path d="M138.438 64.2812C138.438 66.1797 136.898 67.7188 135 67.7188C133.102 67.7188 131.562 66.1797 131.562 64.2812" stroke="white" stroke-width="1.71875" stroke-miterlimit="10" stroke-linecap="round" stroke-linejoin="round"/>
<path d="M141.875 60.8438L143.58 74.2048C143.589 74.2759 143.594 74.3484 143.594 74.4219C143.594 75.3711 142.824 76.1406 141.875 76.1406H128.125C127.176 76.1406 126.406 75.3711 126.406 74.4219C126.406 74.3484 126.411 74.2759 126.42 74.2048L128.125 60.8438" stroke="white" stroke-width="1.71875" stroke-miterlimit="10" stroke-linecap="round" stroke-linejoin="round"/>
<path d="M77.4948 128.75V125.214H84.5668V150H80.6568V128.75H77.4948ZM89.4156 144.832V141.908L100.84 125.52H105.532V141.466H108.694V144.832H105.532V150H101.724V144.832H89.4156ZM101.894 129.464L93.8696 141.466H101.894V129.464ZM113.979 150.238C113.277 150.238 112.687 150 112.211 149.524C111.735 149.048 111.497 148.459 111.497 147.756C111.497 147.053 111.735 146.464 112.211 145.988C112.687 145.512 113.277 145.274 113.979 145.274C114.659 145.274 115.237 145.512 115.713 145.988C116.189 146.464 116.427 147.053 116.427 147.756C116.427 148.459 116.189 149.048 115.713 149.524C115.237 150 114.659 150.238 113.979 150.238ZM136.086 128.546H124.696V135.312C125.172 134.677 125.875 134.145 126.804 133.714C127.756 133.283 128.765 133.068 129.83 133.068C131.734 133.068 133.276 133.476 134.454 134.292C135.656 135.108 136.506 136.139 137.004 137.386C137.526 138.633 137.786 139.947 137.786 141.33C137.786 143.007 137.458 144.503 136.8 145.818C136.166 147.11 135.202 148.13 133.91 148.878C132.641 149.626 131.077 150 129.218 150C126.748 150 124.764 149.388 123.268 148.164C121.772 146.94 120.877 145.319 120.582 143.302H124.356C124.606 144.367 125.161 145.217 126.022 145.852C126.884 146.464 127.96 146.77 129.252 146.77C130.862 146.77 132.063 146.283 132.856 145.308C133.672 144.333 134.08 143.041 134.08 141.432C134.08 139.8 133.672 138.553 132.856 137.692C132.04 136.808 130.839 136.366 129.252 136.366C128.142 136.366 127.201 136.649 126.43 137.216C125.682 137.76 125.138 138.508 124.798 139.46H121.126V125.146H136.086V128.546ZM167.219 126.37V150H163.343V133.816L156.135 150H153.449L146.207 133.816V150H142.331V126.37H146.513L154.809 144.9L163.071 126.37H167.219ZM190.572 139.358H183.704V146.396H180.1V139.358H173.232V136.094H180.1V129.056H183.704V136.094H190.572V139.358Z" fill="#0084FF"/>
<path d="M90.2488 176.376C90.2488 176.707 90.2274 177.005 90.1848 177.272H83.4488C83.5021 177.976 83.7634 178.541 84.2328 178.968C84.7021 179.395 85.2781 179.608 85.9608 179.608C86.9421 179.608 87.6354 179.197 88.0408 178.376H90.0087C89.7421 179.187 89.2568 179.853 88.5528 180.376C87.8594 180.888 86.9954 181.144 85.9608 181.144C85.1181 181.144 84.3608 180.957 83.6888 180.584C83.0274 180.2 82.5048 179.667 82.1208 178.984C81.7474 178.291 81.5608 177.491 81.5608 176.584C81.5608 175.677 81.7421 174.883 82.1048 174.2C82.4781 173.507 82.9954 172.973 83.6568 172.6C84.3288 172.227 85.0968 172.04 85.9608 172.04C86.7928 172.04 87.5341 172.221 88.1848 172.584C88.8354 172.947 89.3421 173.459 89.7048 174.12C90.0674 174.771 90.2488 175.523 90.2488 176.376ZM88.3448 175.8C88.3341 175.128 88.0941 174.589 87.6248 174.184C87.1554 173.779 86.5741 173.576 85.8808 173.576C85.2514 173.576 84.7128 173.779 84.2648 174.184C83.8168 174.579 83.5501 175.117 83.4648 175.8H88.3448ZM91.4358 176.584C91.4358 175.677 91.6171 174.883 91.9798 174.2C92.3531 173.507 92.8651 172.973 93.5158 172.6C94.1664 172.227 94.9131 172.04 95.7558 172.04C96.8224 172.04 97.7024 172.296 98.3958 172.808C99.0998 173.309 99.5744 174.029 99.8198 174.968H97.8518C97.6918 174.531 97.4358 174.189 97.0838 173.944C96.7318 173.699 96.2891 173.576 95.7558 173.576C95.0091 173.576 94.4118 173.843 93.9638 174.376C93.5264 174.899 93.3078 175.635 93.3078 176.584C93.3078 177.533 93.5264 178.275 93.9638 178.808C94.4118 179.341 95.0091 179.608 95.7558 179.608C96.8118 179.608 97.5104 179.144 97.8518 178.216H99.8198C99.5638 179.112 99.0838 179.827 98.3798 180.36C97.6758 180.883 96.8011 181.144 95.7558 181.144C94.9131 181.144 94.1664 180.957 93.5158 180.584C92.8651 180.2 92.3531 179.667 91.9798 178.984C91.6171 178.291 91.4358 177.491 91.4358 176.584ZM105.462 181.144C104.63 181.144 103.878 180.957 103.206 180.584C102.534 180.2 102.006 179.667 101.622 178.984C101.238 178.291 101.046 177.491 101.046 176.584C101.046 175.688 101.243 174.893 101.638 174.2C102.032 173.507 102.571 172.973 103.254 172.6C103.936 172.227 104.699 172.04 105.542 172.04C106.384 172.04 107.147 172.227 107.83 172.6C108.512 172.973 109.051 173.507 109.446 174.2C109.84 174.893 110.038 175.688 110.038 176.584C110.038 177.48 109.835 178.275 109.43 178.968C109.024 179.661 108.47 180.2 107.766 180.584C107.072 180.957 106.304 181.144 105.462 181.144ZM105.462 179.56C105.931 179.56 106.368 179.448 106.774 179.224C107.19 179 107.526 178.664 107.782 178.216C108.038 177.768 108.166 177.224 108.166 176.584C108.166 175.944 108.043 175.405 107.798 174.968C107.552 174.52 107.227 174.184 106.822 173.96C106.416 173.736 105.979 173.624 105.51 173.624C105.04 173.624 104.603 173.736 104.198 173.96C103.803 174.184 103.488 174.52 103.254 174.968C103.019 175.405 102.902 175.944 102.902 176.584C102.902 177.533 103.142 178.269 103.622 178.792C104.112 179.304 104.726 179.56 105.462 179.56ZM122.513 172.04C123.206 172.04 123.825 172.184 124.369 172.472C124.923 172.76 125.355 173.187 125.665 173.752C125.985 174.317 126.145 175 126.145 175.8V181H124.337V176.072C124.337 175.283 124.139 174.68 123.745 174.264C123.35 173.837 122.811 173.624 122.129 173.624C121.446 173.624 120.902 173.837 120.497 174.264C120.102 174.68 119.905 175.283 119.905 176.072V181H118.097V176.072C118.097 175.283 117.899 174.68 117.505 174.264C117.11 173.837 116.571 173.624 115.889 173.624C115.206 173.624 114.662 173.837 114.257 174.264C113.862 174.68 113.665 175.283 113.665 176.072V181H111.841V172.184H113.665V173.192C113.963 172.829 114.342 172.547 114.801 172.344C115.259 172.141 115.75 172.04 116.273 172.04C116.977 172.04 117.606 172.189 118.161 172.488C118.715 172.787 119.142 173.219 119.441 173.784C119.707 173.251 120.123 172.829 120.689 172.52C121.254 172.2 121.862 172.04 122.513 172.04ZM134.446 173.496C134.755 173.069 135.177 172.723 135.71 172.456C136.254 172.179 136.857 172.04 137.518 172.04C138.297 172.04 139.001 172.227 139.63 172.6C140.259 172.973 140.755 173.507 141.118 174.2C141.481 174.883 141.662 175.667 141.662 176.552C141.662 177.437 141.481 178.232 141.118 178.936C140.755 179.629 140.254 180.173 139.614 180.568C138.985 180.952 138.286 181.144 137.518 181.144C136.835 181.144 136.227 181.011 135.694 180.744C135.171 180.477 134.755 180.136 134.446 179.72V181H132.622V169.16H134.446V173.496ZM139.806 176.552C139.806 175.944 139.678 175.421 139.422 174.984C139.177 174.536 138.846 174.2 138.43 173.976C138.025 173.741 137.587 173.624 137.118 173.624C136.659 173.624 136.222 173.741 135.806 173.976C135.401 174.211 135.07 174.552 134.814 175C134.569 175.448 134.446 175.976 134.446 176.584C134.446 177.192 134.569 177.725 134.814 178.184C135.07 178.632 135.401 178.973 135.806 179.208C136.222 179.443 136.659 179.56 137.118 179.56C137.587 179.56 138.025 179.443 138.43 179.208C138.846 178.963 139.177 178.611 139.422 178.152C139.678 177.693 139.806 177.16 139.806 176.552ZM145.29 173.464C145.556 173.016 145.908 172.669 146.346 172.424C146.794 172.168 147.322 172.04 147.93 172.04V173.928H147.466C146.751 173.928 146.207 174.109 145.834 174.472C145.471 174.835 145.29 175.464 145.29 176.36V181H143.466V172.184H145.29V173.464ZM148.998 176.552C148.998 175.667 149.18 174.883 149.542 174.2C149.916 173.517 150.417 172.989 151.046 172.616C151.686 172.232 152.39 172.04 153.158 172.04C153.852 172.04 154.454 172.179 154.966 172.456C155.489 172.723 155.905 173.059 156.214 173.464V172.184H158.054V181H156.214V179.688C155.905 180.104 155.484 180.451 154.95 180.728C154.417 181.005 153.809 181.144 153.126 181.144C152.369 181.144 151.676 180.952 151.046 180.568C150.417 180.173 149.916 179.629 149.542 178.936C149.18 178.232 148.998 177.437 148.998 176.552ZM156.214 176.584C156.214 175.976 156.086 175.448 155.83 175C155.585 174.552 155.26 174.211 154.854 173.976C154.449 173.741 154.012 173.624 153.542 173.624C153.073 173.624 152.636 173.741 152.23 173.976C151.825 174.2 151.494 174.536 151.238 174.984C150.993 175.421 150.87 175.944 150.87 176.552C150.87 177.16 150.993 177.693 151.238 178.152C151.494 178.611 151.825 178.963 152.23 179.208C152.646 179.443 153.084 179.56 153.542 179.56C154.012 179.56 154.449 179.443 154.854 179.208C155.26 178.973 155.585 178.632 155.83 178.184C156.086 177.725 156.214 177.192 156.214 176.584ZM164.898 172.04C165.591 172.04 166.21 172.184 166.754 172.472C167.309 172.76 167.741 173.187 168.05 173.752C168.359 174.317 168.514 175 168.514 175.8V181H166.706V176.072C166.706 175.283 166.509 174.68 166.114 174.264C165.719 173.837 165.181 173.624 164.498 173.624C163.815 173.624 163.271 173.837 162.866 174.264C162.471 174.68 162.274 175.283 162.274 176.072V181H160.45V172.184H162.274V173.192C162.573 172.829 162.951 172.547 163.41 172.344C163.879 172.141 164.375 172.04 164.898 172.04ZM170.233 176.552C170.233 175.667 170.414 174.883 170.777 174.2C171.15 173.517 171.651 172.989 172.281 172.616C172.921 172.232 173.63 172.04 174.409 172.04C174.985 172.04 175.55 172.168 176.105 172.424C176.67 172.669 177.118 173 177.449 173.416V169.16H179.289V181H177.449V179.672C177.15 180.099 176.734 180.451 176.201 180.728C175.678 181.005 175.075 181.144 174.393 181.144C173.625 181.144 172.921 180.952 172.281 180.568C171.651 180.173 171.15 179.629 170.777 178.936C170.414 178.232 170.233 177.437 170.233 176.552ZM177.449 176.584C177.449 175.976 177.321 175.448 177.065 175C176.819 174.552 176.494 174.211 176.089 173.976C175.683 173.741 175.246 173.624 174.777 173.624C174.307 173.624 173.87 173.741 173.465 173.976C173.059 174.2 172.729 174.536 172.473 174.984C172.227 175.421 172.105 175.944 172.105 176.552C172.105 177.16 172.227 177.693 172.473 178.152C172.729 178.611 173.059 178.963 173.465 179.208C173.881 179.443 174.318 179.56 174.777 179.56C175.246 179.56 175.683 179.443 176.089 179.208C176.494 178.973 176.819 178.632 177.065 178.184C177.321 177.725 177.449 177.192 177.449 176.584ZM184.884 181.144C184.191 181.144 183.567 181.021 183.012 180.776C182.468 180.52 182.036 180.179 181.716 179.752C181.396 179.315 181.226 178.829 181.204 178.296H183.092C183.124 178.669 183.3 178.984 183.62 179.24C183.951 179.485 184.362 179.608 184.852 179.608C185.364 179.608 185.759 179.512 186.036 179.32C186.324 179.117 186.468 178.861 186.468 178.552C186.468 178.221 186.308 177.976 185.988 177.816C185.679 177.656 185.183 177.48 184.5 177.288C183.839 177.107 183.3 176.931 182.884 176.76C182.468 176.589 182.106 176.328 181.796 175.976C181.498 175.624 181.348 175.16 181.348 174.584C181.348 174.115 181.487 173.688 181.764 173.304C182.042 172.909 182.436 172.6 182.948 172.376C183.471 172.152 184.068 172.04 184.74 172.04C185.743 172.04 186.548 172.296 187.156 172.808C187.775 173.309 188.106 173.997 188.148 174.872H186.324C186.292 174.477 186.132 174.163 185.844 173.928C185.556 173.693 185.167 173.576 184.676 173.576C184.196 173.576 183.828 173.667 183.572 173.848C183.316 174.029 183.188 174.269 183.188 174.568C183.188 174.803 183.274 175 183.444 175.16C183.615 175.32 183.823 175.448 184.068 175.544C184.314 175.629 184.676 175.741 185.156 175.88C185.796 176.051 186.319 176.227 186.724 176.408C187.14 176.579 187.498 176.835 187.796 177.176C188.095 177.517 188.25 177.971 188.26 178.536C188.26 179.037 188.122 179.485 187.844 179.88C187.567 180.275 187.172 180.584 186.66 180.808C186.159 181.032 185.567 181.144 184.884 181.144Z" fill="#666666"/>
</g>
<defs>
<filter id="filter0_d_174_98" x="0" y="0" width="270" height="222" filterUnits="userSpaceOnUse" color-interpolation-filters="sRGB">
<feFlood flood-opacity="0" result="BackgroundImageFix"/>
<feColorMatrix in="SourceAlpha" type="matrix" values="0 0 0 0 0 0 0 0 0 0 0 0 0 0 0 0 0 0 127 0" result="hardAlpha"/>
<feMorphology radius="8" operator="erode" in="SourceAlpha" result="effect1_dropShadow_174_98"/>
<feOffset dy="2"/>
<feGaussianBlur stdDeviation="7.5"/>
<feComposite in2="hardAlpha" operator="out"/>
<feColorMatrix type="matrix" values="0 0 0 0 0.0784314 0 0 0 0 0.0313726 0 0 0 0 0.258824 0 0 0 0.28 0"/>
<feBlend mode="normal" in2="BackgroundImageFix" result="effect1_dropShadow_174_98"/>
<feBlend mode="normal" in="SourceGraphic" in2="effect1_dropShadow_174_98" result="shape"/>
</filter>
<linearGradient id="paint0_linear_174_98" x1="135" y1="5" x2="135" y2="213" gradientUnits="userSpaceOnUse">
<stop stop-color="#FCFCFC"/>
<stop offset="1" stop-color="#FAF5FF"/>
</linearGradient>
<linearGradient id="paint1_linear_174_98" x1="10.009" y1="72.9955" x2="106.431" y2="72.9955" gradientUnits="userSpaceOnUse">
<stop stop-color="#CBE0FF" stop-opacity="0"/>
<stop offset="1" stop-color="#D1D6FF"/>
</linearGradient>
<linearGradient id="paint2_linear_174_98" x1="256.009" y1="172.996" x2="352.431" y2="172.996" gradientUnits="userSpaceOnUse">
<stop stop-color="#CBE0FF" stop-opacity="0"/>
<stop offset="1" stop-color="#D1D6FF"/>
</linearGradient>
<linearGradient id="paint3_linear_174_98" x1="100" y1="32" x2="170" y2="102" gradientUnits="userSpaceOnUse">
<stop stop-color="#A3D9FE" stop-opacity="0.6"/>
<stop offset="1" stop-color="#B5D0F5" stop-opacity="0.2"/>
</linearGradient>
<linearGradient id="paint4_linear_174_98" x1="135" y1="32" x2="135" y2="102" gradientUnits="userSpaceOnUse">
<stop stop-color="#D8ECFE"/>
<stop offset="1" stop-color="#70BDFF" stop-opacity="0"/>
</linearGradient>
<linearGradient id="paint5_linear_174_98" x1="106" y1="38" x2="164" y2="96" gradientUnits="userSpaceOnUse">
<stop stop-color="#89C4FE"/>
<stop offset="1" stop-color="#84B4F4" stop-opacity="0.2"/>
</linearGradient>
<linearGradient id="paint6_linear_174_98" x1="135" y1="38" x2="135" y2="96" gradientUnits="userSpaceOnUse">
<stop stop-color="#DAEEFF"/>
<stop offset="1" stop-color="#70BDFF" stop-opacity="0"/>
</linearGradient>
<linearGradient id="paint7_linear_174_98" x1="113" y1="45" x2="157" y2="89" gradientUnits="userSpaceOnUse">
<stop stop-color="#75AFFE"/>
<stop offset="1" stop-color="#2C90F5"/>
</linearGradient>
<linearGradient id="paint8_linear_174_98" x1="135" y1="45" x2="135" y2="89" gradientUnits="userSpaceOnUse">
<stop stop-color="#CBE7FF"/>
<stop offset="1" stop-color="#70BDFF" stop-opacity="0"/>
</linearGradient>
<clipPath id="clip0_174_98">
<rect width="92" height="100" fill="white" transform="translate(12 17)"/>
</clipPath>
<clipPath id="clip1_174_98">
<rect width="92" height="100" fill="white" transform="matrix(-1 0 0 -1 258 117)"/>
</clipPath>
</defs>
</svg>
