<svg width="270" height="314" viewBox="0 0 270 314" fill="none" xmlns="http://www.w3.org/2000/svg">
<g filter="url(#filter0_d_174_74)">
<rect x="7" y="5" width="256" height="300" rx="16" fill="url(#paint0_linear_174_74)"/>
<rect x="11.75" y="9.75" width="246.5" height="290.5" rx="13.25" stroke="#EBF0FF" stroke-width="1.5"/>
<path d="M32.024 31.352V34.616H35.864V36.104H32.024V39.512H36.344V41H30.2V29.864H36.344V31.352H32.024ZM49.2626 32.04C49.956 32.04 50.5746 32.184 51.1186 32.472C51.6733 32.76 52.1053 33.1867 52.4146 33.752C52.7346 34.3173 52.8946 35 52.8946 35.8V41H51.0866V36.072C51.0866 35.2827 50.8893 34.68 50.4946 34.264C50.1 33.8373 49.5613 33.624 48.8786 33.624C48.196 33.624 47.652 33.8373 47.2466 34.264C46.852 34.68 46.6546 35.2827 46.6546 36.072V41H44.8466V36.072C44.8466 35.2827 44.6493 34.68 44.2546 34.264C43.86 33.8373 43.3213 33.624 42.6386 33.624C41.956 33.624 41.412 33.8373 41.0066 34.264C40.612 34.68 40.4146 35.2827 40.4146 36.072V41H38.5906V32.184H40.4146V33.192C40.7133 32.8293 41.092 32.5467 41.5506 32.344C42.0093 32.1413 42.5 32.04 43.0226 32.04C43.7266 32.04 44.356 32.1893 44.9106 32.488C45.4653 32.7867 45.892 33.2187 46.1906 33.784C46.4573 33.2507 46.8733 32.8293 47.4386 32.52C48.004 32.2 48.612 32.04 49.2626 32.04ZM54.6076 36.552C54.6076 35.6667 54.789 34.8827 55.1516 34.2C55.525 33.5173 56.0263 32.9893 56.6556 32.616C57.2956 32.232 57.9996 32.04 58.7676 32.04C59.461 32.04 60.0636 32.1787 60.5756 32.456C61.0983 32.7227 61.5143 33.0587 61.8236 33.464V32.184H63.6636V41H61.8236V39.688C61.5143 40.104 61.093 40.4507 60.5596 40.728C60.0263 41.0053 59.4183 41.144 58.7356 41.144C57.9783 41.144 57.285 40.952 56.6556 40.568C56.0263 40.1733 55.525 39.6293 55.1516 38.936C54.789 38.232 54.6076 37.4373 54.6076 36.552ZM61.8236 36.584C61.8236 35.976 61.6956 35.448 61.4396 35C61.1943 34.552 60.869 34.2107 60.4636 33.976C60.0583 33.7413 59.621 33.624 59.1516 33.624C58.6823 33.624 58.245 33.7413 57.8396 33.976C57.4343 34.2 57.1036 34.536 56.8476 34.984C56.6023 35.4213 56.4796 35.944 56.4796 36.552C56.4796 37.16 56.6023 37.6933 56.8476 38.152C57.1036 38.6107 57.4343 38.9627 57.8396 39.208C58.2556 39.4427 58.693 39.56 59.1516 39.56C59.621 39.56 60.0583 39.4427 60.4636 39.208C60.869 38.9733 61.1943 38.632 61.4396 38.184C61.6956 37.7253 61.8236 37.192 61.8236 36.584ZM66.9874 31.016C66.6567 31.016 66.3794 30.904 66.1554 30.68C65.9314 30.456 65.8194 30.1787 65.8194 29.848C65.8194 29.5173 65.9314 29.24 66.1554 29.016C66.3794 28.792 66.6567 28.68 66.9874 28.68C67.3074 28.68 67.5794 28.792 67.8034 29.016C68.0274 29.24 68.1394 29.5173 68.1394 29.848C68.1394 30.1787 68.0274 30.456 67.8034 30.68C67.5794 30.904 67.3074 31.016 66.9874 31.016ZM67.8834 32.184V41H66.0594V32.184H67.8834ZM72.1021 29.16V41H70.2781V29.16H72.1021ZM82.0611 39.368L84.5571 32.184H86.4931L83.1331 41H80.9571L77.6131 32.184H79.5651L82.0611 39.368ZM95.9519 36.376C95.9519 36.7067 95.9305 37.0053 95.8879 37.272H89.1519C89.2052 37.976 89.4665 38.5413 89.9359 38.968C90.4052 39.3947 90.9812 39.608 91.6639 39.608C92.6452 39.608 93.3385 39.1973 93.7439 38.376H95.7119C95.4452 39.1867 94.9599 39.8533 94.2559 40.376C93.5625 40.888 92.6985 41.144 91.6639 41.144C90.8212 41.144 90.0639 40.9573 89.3919 40.584C88.7305 40.2 88.2079 39.6667 87.8239 38.984C87.4505 38.2907 87.2639 37.4907 87.2639 36.584C87.2639 35.6773 87.4452 34.8827 87.8079 34.2C88.1812 33.5067 88.6985 32.9733 89.3599 32.6C90.0319 32.2267 90.7999 32.04 91.6639 32.04C92.4959 32.04 93.2372 32.2213 93.8879 32.584C94.5385 32.9467 95.0452 33.4587 95.4079 34.12C95.7705 34.7707 95.9519 35.5227 95.9519 36.376ZM94.0479 35.8C94.0372 35.128 93.7972 34.5893 93.3279 34.184C92.8585 33.7787 92.2772 33.576 91.5839 33.576C90.9545 33.576 90.4159 33.7787 89.9679 34.184C89.5199 34.5787 89.2532 35.1173 89.1679 35.8H94.0479ZM99.5709 33.464C99.8375 33.016 100.19 32.6693 100.627 32.424C101.075 32.168 101.603 32.04 102.211 32.04V33.928H101.747C101.032 33.928 100.488 34.1093 100.115 34.472C99.7522 34.8347 99.5709 35.464 99.5709 36.36V41H97.7469V32.184H99.5709V33.464ZM104.816 31.016C104.485 31.016 104.208 30.904 103.984 30.68C103.76 30.456 103.648 30.1787 103.648 29.848C103.648 29.5173 103.76 29.24 103.984 29.016C104.208 28.792 104.485 28.68 104.816 28.68C105.136 28.68 105.408 28.792 105.632 29.016C105.856 29.24 105.968 29.5173 105.968 29.848C105.968 30.1787 105.856 30.456 105.632 30.68C105.408 30.904 105.136 31.016 104.816 31.016ZM105.712 32.184V41H103.888V32.184H105.712ZM111.802 33.672H110.17V41H108.33V33.672H107.29V32.184H108.33V31.56C108.33 30.5467 108.597 29.8107 109.13 29.352C109.674 28.8827 110.522 28.648 111.674 28.648V30.168C111.12 30.168 110.73 30.2747 110.506 30.488C110.282 30.6907 110.17 31.048 110.17 31.56V32.184H111.802V33.672ZM114.347 31.016C114.016 31.016 113.739 30.904 113.515 30.68C113.291 30.456 113.179 30.1787 113.179 29.848C113.179 29.5173 113.291 29.24 113.515 29.016C113.739 28.792 114.016 28.68 114.347 28.68C114.667 28.68 114.939 28.792 115.163 29.016C115.387 29.24 115.499 29.5173 115.499 29.848C115.499 30.1787 115.387 30.456 115.163 30.68C114.939 30.904 114.667 31.016 114.347 31.016ZM115.243 32.184V41H113.419V32.184H115.243ZM125.718 36.376C125.718 36.7067 125.696 37.0053 125.654 37.272H118.918C118.971 37.976 119.232 38.5413 119.702 38.968C120.171 39.3947 120.747 39.608 121.43 39.608C122.411 39.608 123.104 39.1973 123.51 38.376H125.477C125.211 39.1867 124.726 39.8533 124.022 40.376C123.328 40.888 122.464 41.144 121.43 41.144C120.587 41.144 119.83 40.9573 119.158 40.584C118.496 40.2 117.974 39.6667 117.59 38.984C117.216 38.2907 117.03 37.4907 117.03 36.584C117.03 35.6773 117.211 34.8827 117.574 34.2C117.947 33.5067 118.464 32.9733 119.126 32.6C119.798 32.2267 120.566 32.04 121.43 32.04C122.262 32.04 123.003 32.2213 123.654 32.584C124.304 32.9467 124.811 33.4587 125.174 34.12C125.536 34.7707 125.718 35.5227 125.718 36.376ZM123.814 35.8C123.803 35.128 123.563 34.5893 123.094 34.184C122.624 33.7787 122.043 33.576 121.35 33.576C120.72 33.576 120.182 33.7787 119.734 34.184C119.286 34.5787 119.019 35.1173 118.934 35.8H123.814ZM129.337 33.464C129.603 33.016 129.955 32.6693 130.393 32.424C130.841 32.168 131.369 32.04 131.977 32.04V33.928H131.513C130.798 33.928 130.254 34.1093 129.881 34.472C129.518 34.8347 129.337 35.464 129.337 36.36V41H127.513V32.184H129.337V33.464Z" fill="#0D2052"/>
<path d="M205 145C205 183.66 173.66 215 135 215C96.3401 215 65 183.66 65 145C65 106.34 96.3401 75 135 75C173.66 75 205 106.34 205 145ZM87.4 145C87.4 171.289 108.711 192.6 135 192.6C161.289 192.6 182.6 171.289 182.6 145C182.6 118.711 161.289 97.4 135 97.4C108.711 97.4 87.4 118.711 87.4 145Z" fill="#EDECF5"/>
<g opacity="0.58" filter="url(#filter1_f_174_74)">
<mask id="path-5-inside-1_174_74" fill="white">
<path d="M92.927 186.077C88.501 190.398 81.3226 190.354 77.7618 185.296C72.0016 177.114 68.0366 167.755 66.1863 157.833C63.6483 144.223 65.203 130.166 70.654 117.439C76.105 104.713 85.2074 93.8886 96.8102 86.3354C105.269 80.8289 114.779 77.2412 124.676 75.7654C130.794 74.8531 135.779 80.0191 135.704 86.2042C135.63 92.3894 130.49 97.2121 124.458 98.582C118.999 99.8219 113.772 102.022 109.031 105.108C101.141 110.244 94.9514 117.605 91.2447 126.259C87.538 134.913 86.4808 144.471 88.2067 153.726C89.2438 159.287 91.2578 164.589 94.1271 169.396C97.2973 174.707 97.3529 181.756 92.927 186.077Z"/>
</mask>
<path d="M92.927 186.077C88.501 190.398 81.3226 190.354 77.7618 185.296C72.0016 177.114 68.0366 167.755 66.1863 157.833C63.6483 144.223 65.203 130.166 70.654 117.439C76.105 104.713 85.2074 93.8886 96.8102 86.3354C105.269 80.8289 114.779 77.2412 124.676 75.7654C130.794 74.8531 135.779 80.0191 135.704 86.2042C135.63 92.3894 130.49 97.2121 124.458 98.582C118.999 99.8219 113.772 102.022 109.031 105.108C101.141 110.244 94.9514 117.605 91.2447 126.259C87.538 134.913 86.4808 144.471 88.2067 153.726C89.2438 159.287 91.2578 164.589 94.1271 169.396C97.2973 174.707 97.3529 181.756 92.927 186.077Z" fill="url(#paint1_linear_174_74)"/>
<path d="M92.927 186.077C88.501 190.398 81.3226 190.354 77.7618 185.296C72.0016 177.114 68.0366 167.755 66.1863 157.833C63.6483 144.223 65.203 130.166 70.654 117.439C76.105 104.713 85.2074 93.8886 96.8102 86.3354C105.269 80.8289 114.779 77.2412 124.676 75.7654C130.794 74.8531 135.779 80.0191 135.704 86.2042C135.63 92.3894 130.49 97.2121 124.458 98.582C118.999 99.8219 113.772 102.022 109.031 105.108C101.141 110.244 94.9514 117.605 91.2447 126.259C87.538 134.913 86.4808 144.471 88.2067 153.726C89.2438 159.287 91.2578 164.589 94.1271 169.396C97.2973 174.707 97.3529 181.756 92.927 186.077Z" stroke="#FAEFFC" stroke-width="1.6092" mask="url(#path-5-inside-1_174_74)"/>
</g>
<mask id="path-6-inside-2_174_74" fill="white">
<path d="M88.4907 190.408C86.5148 192.337 83.3339 192.31 81.5507 190.202C73.7263 180.95 68.4181 169.8 66.1863 157.833C63.6483 144.223 65.203 130.166 70.654 117.439C76.105 104.713 85.2074 93.8886 96.8102 86.3354C107.013 79.6937 118.746 75.8434 130.841 75.1236C133.598 74.9596 135.812 77.2434 135.779 80.0047L135.63 92.4038C135.597 95.165 133.326 97.3493 130.577 97.6059C122.918 98.3208 115.519 100.884 109.031 105.108C101.141 110.244 94.9514 117.605 91.2447 126.259C87.538 134.913 86.4808 144.471 88.2067 153.726C89.626 161.337 92.875 168.461 97.642 174.498C99.3533 176.665 99.3391 179.816 97.3632 181.746L88.4907 190.408Z"/>
</mask>
<path d="M88.4907 190.408C86.5148 192.337 83.3339 192.31 81.5507 190.202C73.7263 180.95 68.4181 169.8 66.1863 157.833C63.6483 144.223 65.203 130.166 70.654 117.439C76.105 104.713 85.2074 93.8886 96.8102 86.3354C107.013 79.6937 118.746 75.8434 130.841 75.1236C133.598 74.9596 135.812 77.2434 135.779 80.0047L135.63 92.4038C135.597 95.165 133.326 97.3493 130.577 97.6059C122.918 98.3208 115.519 100.884 109.031 105.108C101.141 110.244 94.9514 117.605 91.2447 126.259C87.538 134.913 86.4808 144.471 88.2067 153.726C89.626 161.337 92.875 168.461 97.642 174.498C99.3533 176.665 99.3391 179.816 97.3632 181.746L88.4907 190.408Z" fill="url(#paint2_linear_174_74)" stroke="#FAEFFC" stroke-width="1.6092" mask="url(#path-6-inside-2_174_74)"/>
<g opacity="0.6" filter="url(#filter2_f_174_74)">
<mask id="path-7-inside-3_174_74" fill="white">
<path d="M165.606 195.803C168.721 201.147 166.932 208.099 161.159 210.322C150.089 214.586 138.054 215.989 126.187 214.309C114.319 212.628 103.147 207.94 93.6952 200.77C88.767 197.032 88.9784 189.856 93.4541 185.587C97.9298 181.317 104.972 181.623 110.167 184.98C115.924 188.7 122.454 191.157 129.327 192.13C136.2 193.103 143.156 192.555 149.719 190.58C155.642 188.798 162.492 190.458 165.606 195.803Z"/>
</mask>
<path d="M165.606 195.803C168.721 201.147 166.932 208.099 161.159 210.322C150.089 214.586 138.054 215.989 126.187 214.309C114.319 212.628 103.147 207.94 93.6952 200.77C88.767 197.032 88.9784 189.856 93.4541 185.587C97.9298 181.317 104.972 181.623 110.167 184.98C115.924 188.7 122.454 191.157 129.327 192.13C136.2 193.103 143.156 192.555 149.719 190.58C155.642 188.798 162.492 190.458 165.606 195.803Z" fill="url(#paint3_linear_174_74)"/>
<path d="M165.606 195.803C168.721 201.147 166.932 208.099 161.159 210.322C150.089 214.586 138.054 215.989 126.187 214.309C114.319 212.628 103.147 207.94 93.6952 200.77C88.767 197.032 88.9784 189.856 93.4541 185.587C97.9298 181.317 104.972 181.623 110.167 184.98C115.924 188.7 122.454 191.157 129.327 192.13C136.2 193.103 143.156 192.555 149.719 190.58C155.642 188.798 162.492 190.458 165.606 195.803Z" stroke="#FAEFFC" stroke-width="1.6092" mask="url(#path-7-inside-3_174_74)"/>
</g>
<mask id="path-8-inside-4_174_74" fill="white">
<path d="M167.728 201.16C169.118 203.545 168.318 206.624 165.839 207.841C153.277 214.006 139.117 216.281 125.187 214.309C111.257 212.336 98.2841 206.219 87.9279 196.809C85.8841 194.953 85.9699 191.772 87.968 189.866L96.9403 181.307C98.9384 179.401 102.088 179.499 104.193 181.286C111.025 187.087 119.386 190.864 128.327 192.13C137.268 193.396 146.349 192.088 154.523 188.412C157.041 187.28 160.094 188.06 161.484 190.446L167.728 201.16Z"/>
</mask>
<path d="M167.728 201.16C169.118 203.545 168.318 206.624 165.839 207.841C153.277 214.006 139.117 216.281 125.187 214.309C111.257 212.336 98.2841 206.219 87.9279 196.809C85.8841 194.953 85.9699 191.772 87.968 189.866L96.9403 181.307C98.9384 179.401 102.088 179.499 104.193 181.286C111.025 187.087 119.386 190.864 128.327 192.13C137.268 193.396 146.349 192.088 154.523 188.412C157.041 187.28 160.094 188.06 161.484 190.446L167.728 201.16Z" fill="url(#paint4_linear_174_74)" stroke="#FAEFFC" stroke-width="1.6092" mask="url(#path-8-inside-4_174_74)"/>
<g opacity="0.58" filter="url(#filter3_f_174_74)">
<mask id="path-9-inside-5_174_74" fill="white">
<path d="M192.746 130.595C198.716 128.975 204.965 132.507 205.614 138.658C206.838 150.262 205.147 162.051 200.613 172.93C196.078 183.809 188.896 193.309 179.794 200.609C174.968 204.479 168.06 202.527 165.009 197.146C161.957 191.766 163.968 185.011 168.489 180.789C173.401 176.201 177.318 170.595 179.937 164.312C182.555 158.03 183.779 151.301 183.579 144.583C183.395 138.4 186.777 132.216 192.746 130.595Z"/>
</mask>
<path d="M192.746 130.595C198.716 128.975 204.965 132.507 205.614 138.658C206.838 150.262 205.147 162.051 200.613 172.93C196.078 183.809 188.896 193.309 179.794 200.609C174.968 204.479 168.06 202.527 165.009 197.146C161.957 191.766 163.968 185.011 168.489 180.789C173.401 176.201 177.318 170.595 179.937 164.312C182.555 158.03 183.779 151.301 183.579 144.583C183.395 138.4 186.777 132.216 192.746 130.595Z" fill="url(#paint5_linear_174_74)"/>
<path d="M192.746 130.595C198.716 128.975 204.965 132.507 205.614 138.658C206.838 150.262 205.147 162.051 200.613 172.93C196.078 183.809 188.896 193.309 179.794 200.609C174.968 204.479 168.06 202.527 165.009 197.146C161.957 191.766 163.968 185.011 168.489 180.789C173.401 176.201 177.318 170.595 179.937 164.312C182.555 158.03 183.779 151.301 183.579 144.583C183.395 138.4 186.777 132.216 192.746 130.595Z" stroke="#FAEFFC" stroke-width="1.6092" mask="url(#path-9-inside-5_174_74)"/>
</g>
<mask id="path-10-inside-6_174_74" fill="white">
<path d="M197.73 127.971C200.395 127.248 203.16 128.82 203.692 131.529C206.347 145.067 204.948 159.128 199.613 171.93C194.277 184.732 185.275 195.624 173.792 203.268C171.493 204.799 168.43 203.941 167.067 201.539L160.95 190.753C159.587 188.351 160.449 185.32 162.695 183.714C169.876 178.577 175.515 171.522 178.937 163.312C182.358 155.102 183.399 146.131 181.992 137.415C181.552 134.689 183.098 131.943 185.763 131.22L197.73 127.971Z"/>
</mask>
<path d="M197.73 127.971C200.395 127.248 203.16 128.82 203.692 131.529C206.347 145.067 204.948 159.128 199.613 171.93C194.277 184.732 185.275 195.624 173.792 203.268C171.493 204.799 168.43 203.941 167.067 201.539L160.95 190.753C159.587 188.351 160.449 185.32 162.695 183.714C169.876 178.577 175.515 171.522 178.937 163.312C182.358 155.102 183.399 146.131 181.992 137.415C181.552 134.689 183.098 131.943 185.763 131.22L197.73 127.971Z" fill="url(#paint6_linear_174_74)" stroke="#FAEFFC" stroke-width="1.6092" mask="url(#path-10-inside-6_174_74)"/>
<path d="M115.946 133.624H108.818V137.386C109.126 137.005 109.566 136.697 110.138 136.462C110.71 136.213 111.319 136.088 111.964 136.088C113.137 136.088 114.098 136.345 114.846 136.858C115.594 137.371 116.137 138.031 116.474 138.838C116.811 139.63 116.98 140.481 116.98 141.39C116.98 143.077 116.496 144.433 115.528 145.46C114.575 146.487 113.211 147 111.436 147C109.764 147 108.429 146.582 107.432 145.746C106.435 144.91 105.87 143.817 105.738 142.468H108.73C108.862 143.055 109.155 143.524 109.61 143.876C110.079 144.228 110.673 144.404 111.392 144.404C112.257 144.404 112.91 144.133 113.35 143.59C113.79 143.047 114.01 142.329 114.01 141.434C114.01 140.525 113.783 139.835 113.328 139.366C112.888 138.882 112.235 138.64 111.37 138.64C110.754 138.64 110.241 138.794 109.83 139.102C109.419 139.41 109.126 139.821 108.95 140.334H106.002V130.918H115.946V133.624ZM123.042 143.766L120.468 149.948H118.488L119.918 143.766H123.042ZM133.226 134.966C133.079 134.35 132.823 133.888 132.456 133.58C132.104 133.272 131.591 133.118 130.916 133.118C129.904 133.118 129.156 133.529 128.672 134.35C128.203 135.157 127.961 136.477 127.946 138.31C128.298 137.723 128.811 137.269 129.486 136.946C130.161 136.609 130.894 136.44 131.686 136.44C132.639 136.44 133.483 136.645 134.216 137.056C134.949 137.467 135.521 138.068 135.932 138.86C136.343 139.637 136.548 140.576 136.548 141.676C136.548 142.717 136.335 143.649 135.91 144.47C135.499 145.277 134.891 145.907 134.084 146.362C133.277 146.817 132.317 147.044 131.202 147.044C129.677 147.044 128.474 146.707 127.594 146.032C126.729 145.357 126.12 144.419 125.768 143.216C125.431 141.999 125.262 140.503 125.262 138.728C125.262 136.044 125.724 134.02 126.648 132.656C127.572 131.277 129.031 130.588 131.026 130.588C132.566 130.588 133.761 131.006 134.612 131.842C135.463 132.678 135.954 133.719 136.086 134.966H133.226ZM130.982 138.97C130.205 138.97 129.552 139.197 129.024 139.652C128.496 140.107 128.232 140.767 128.232 141.632C128.232 142.497 128.474 143.179 128.958 143.678C129.457 144.177 130.153 144.426 131.048 144.426C131.84 144.426 132.463 144.184 132.918 143.7C133.387 143.216 133.622 142.563 133.622 141.742C133.622 140.891 133.395 140.217 132.94 139.718C132.5 139.219 131.847 138.97 130.982 138.97ZM141.666 138.508C140.2 137.745 139.466 136.565 139.466 134.966C139.466 134.174 139.664 133.455 140.06 132.81C140.471 132.15 141.08 131.629 141.886 131.248C142.708 130.852 143.705 130.654 144.878 130.654C146.052 130.654 147.042 130.852 147.848 131.248C148.67 131.629 149.278 132.15 149.674 132.81C150.085 133.455 150.29 134.174 150.29 134.966C150.29 135.773 150.092 136.484 149.696 137.1C149.3 137.701 148.772 138.171 148.112 138.508C148.919 138.86 149.55 139.373 150.004 140.048C150.459 140.723 150.686 141.522 150.686 142.446C150.686 143.443 150.43 144.316 149.916 145.064C149.418 145.797 148.728 146.362 147.848 146.758C146.968 147.154 145.978 147.352 144.878 147.352C143.778 147.352 142.788 147.154 141.908 146.758C141.043 146.362 140.354 145.797 139.84 145.064C139.342 144.316 139.092 143.443 139.092 142.446C139.092 141.522 139.32 140.723 139.774 140.048C140.229 139.359 140.86 138.845 141.666 138.508ZM147.298 135.406C147.298 134.687 147.078 134.13 146.638 133.734C146.213 133.338 145.626 133.14 144.878 133.14C144.145 133.14 143.558 133.338 143.118 133.734C142.693 134.13 142.48 134.695 142.48 135.428C142.48 136.088 142.7 136.616 143.14 137.012C143.595 137.408 144.174 137.606 144.878 137.606C145.582 137.606 146.162 137.408 146.616 137.012C147.071 136.601 147.298 136.066 147.298 135.406ZM144.878 139.85C144.042 139.85 143.36 140.063 142.832 140.488C142.319 140.913 142.062 141.522 142.062 142.314C142.062 143.047 142.312 143.649 142.81 144.118C143.324 144.573 144.013 144.8 144.878 144.8C145.744 144.8 146.426 144.565 146.924 144.096C147.423 143.627 147.672 143.033 147.672 142.314C147.672 141.537 147.416 140.935 146.902 140.51C146.389 140.07 145.714 139.85 144.878 139.85ZM156.683 142.49C156.8 143.135 157.064 143.634 157.475 143.986C157.9 144.323 158.465 144.492 159.169 144.492C160.078 144.492 160.738 144.118 161.149 143.37C161.56 142.607 161.765 141.331 161.765 139.542C161.428 140.011 160.951 140.378 160.335 140.642C159.734 140.906 159.081 141.038 158.377 141.038C157.438 141.038 156.588 140.847 155.825 140.466C155.077 140.07 154.483 139.491 154.043 138.728C153.603 137.951 153.383 137.012 153.383 135.912C153.383 134.284 153.867 132.993 154.835 132.04C155.803 131.072 157.123 130.588 158.795 130.588C160.878 130.588 162.344 131.255 163.195 132.59C164.06 133.925 164.493 135.934 164.493 138.618C164.493 140.525 164.324 142.087 163.987 143.304C163.664 144.521 163.1 145.445 162.293 146.076C161.501 146.707 160.416 147.022 159.037 147.022C157.952 147.022 157.028 146.817 156.265 146.406C155.502 145.981 154.916 145.431 154.505 144.756C154.109 144.067 153.882 143.311 153.823 142.49H156.683ZM159.015 138.53C159.778 138.53 160.379 138.295 160.819 137.826C161.259 137.357 161.479 136.726 161.479 135.934C161.479 135.069 161.244 134.401 160.775 133.932C160.32 133.448 159.697 133.206 158.905 133.206C158.113 133.206 157.482 133.455 157.013 133.954C156.558 134.438 156.331 135.083 156.331 135.89C156.331 136.667 156.551 137.305 156.991 137.804C157.446 138.288 158.12 138.53 159.015 138.53Z" fill="#0D2052"/>
<path d="M126.505 157.242L122.823 167H121.353L117.671 157.242H119.029L122.095 165.656L125.161 157.242H126.505ZM127.426 163.136C127.426 162.352 127.585 161.666 127.902 161.078C128.22 160.481 128.654 160.019 129.204 159.692C129.764 159.365 130.385 159.202 131.066 159.202C131.738 159.202 132.322 159.347 132.816 159.636C133.311 159.925 133.68 160.289 133.922 160.728V159.328H135.21V167H133.922V165.572C133.67 166.02 133.292 166.393 132.788 166.692C132.294 166.981 131.715 167.126 131.052 167.126C130.371 167.126 129.755 166.958 129.204 166.622C128.654 166.286 128.22 165.815 127.902 165.208C127.585 164.601 127.426 163.911 127.426 163.136ZM133.922 163.15C133.922 162.571 133.806 162.067 133.572 161.638C133.339 161.209 133.022 160.882 132.62 160.658C132.228 160.425 131.794 160.308 131.318 160.308C130.842 160.308 130.408 160.42 130.016 160.644C129.624 160.868 129.312 161.195 129.078 161.624C128.845 162.053 128.728 162.557 128.728 163.136C128.728 163.724 128.845 164.237 129.078 164.676C129.312 165.105 129.624 165.437 130.016 165.67C130.408 165.894 130.842 166.006 131.318 166.006C131.794 166.006 132.228 165.894 132.62 165.67C133.022 165.437 133.339 165.105 133.572 164.676C133.806 164.237 133.922 163.729 133.922 163.15ZM138.637 156.64V167H137.363V156.64H138.637ZM141.466 158.082C141.224 158.082 141.018 157.998 140.85 157.83C140.682 157.662 140.598 157.457 140.598 157.214C140.598 156.971 140.682 156.766 140.85 156.598C141.018 156.43 141.224 156.346 141.466 156.346C141.7 156.346 141.896 156.43 142.054 156.598C142.222 156.766 142.306 156.971 142.306 157.214C142.306 157.457 142.222 157.662 142.054 157.83C141.896 157.998 141.7 158.082 141.466 158.082ZM142.082 159.328V167H140.808V159.328H142.082ZM143.778 163.136C143.778 162.352 143.936 161.666 144.254 161.078C144.571 160.481 145.005 160.019 145.556 159.692C146.116 159.365 146.741 159.202 147.432 159.202C148.029 159.202 148.584 159.342 149.098 159.622C149.611 159.893 150.003 160.252 150.274 160.7V156.64H151.562V167H150.274V165.558C150.022 166.015 149.648 166.393 149.154 166.692C148.659 166.981 148.08 167.126 147.418 167.126C146.736 167.126 146.116 166.958 145.556 166.622C145.005 166.286 144.571 165.815 144.254 165.208C143.936 164.601 143.778 163.911 143.778 163.136ZM150.274 163.15C150.274 162.571 150.157 162.067 149.924 161.638C149.69 161.209 149.373 160.882 148.972 160.658C148.58 160.425 148.146 160.308 147.67 160.308C147.194 160.308 146.76 160.42 146.368 160.644C145.976 160.868 145.663 161.195 145.43 161.624C145.196 162.053 145.08 162.557 145.08 163.136C145.08 163.724 145.196 164.237 145.43 164.676C145.663 165.105 145.976 165.437 146.368 165.67C146.76 165.894 147.194 166.006 147.67 166.006C148.146 166.006 148.58 165.894 148.972 165.67C149.373 165.437 149.69 165.105 149.924 164.676C150.157 164.237 150.274 163.729 150.274 163.15Z" fill="#989898"/>
<circle cx="30.5" cy="255" r="6.5" fill="#3FDCAA"/>
<path d="M49.6137 250.624L46.5417 259H44.5017L41.4297 250.624H43.2297L45.5337 257.284L47.8257 250.624H49.6137ZM50.189 255.652C50.189 254.98 50.321 254.384 50.585 253.864C50.857 253.344 51.221 252.944 51.677 252.664C52.141 252.384 52.657 252.244 53.225 252.244C53.721 252.244 54.153 252.344 54.521 252.544C54.897 252.744 55.197 252.996 55.421 253.3V252.352H57.113V259H55.421V258.028C55.205 258.34 54.905 258.6 54.521 258.808C54.145 259.008 53.709 259.108 53.213 259.108C52.653 259.108 52.141 258.964 51.677 258.676C51.221 258.388 50.857 257.984 50.585 257.464C50.321 256.936 50.189 256.332 50.189 255.652ZM55.421 255.676C55.421 255.268 55.341 254.92 55.181 254.632C55.021 254.336 54.805 254.112 54.533 253.96C54.261 253.8 53.969 253.72 53.657 253.72C53.345 253.72 53.057 253.796 52.793 253.948C52.529 254.1 52.313 254.324 52.145 254.62C51.985 254.908 51.905 255.252 51.905 255.652C51.905 256.052 51.985 256.404 52.145 256.708C52.313 257.004 52.529 257.232 52.793 257.392C53.065 257.552 53.353 257.632 53.657 257.632C53.969 257.632 54.261 257.556 54.533 257.404C54.805 257.244 55.021 257.02 55.181 256.732C55.341 256.436 55.421 256.084 55.421 255.676ZM60.4338 250.12V259H58.7538V250.12H60.4338ZM62.9456 251.56C62.6496 251.56 62.4016 251.468 62.2016 251.284C62.0096 251.092 61.9136 250.856 61.9136 250.576C61.9136 250.296 62.0096 250.064 62.2016 249.88C62.4016 249.688 62.6496 249.592 62.9456 249.592C63.2416 249.592 63.4856 249.688 63.6776 249.88C63.8776 250.064 63.9776 250.296 63.9776 250.576C63.9776 250.856 63.8776 251.092 63.6776 251.284C63.4856 251.468 63.2416 251.56 62.9456 251.56ZM63.7736 252.352V259H62.0936V252.352H63.7736ZM65.0015 255.652C65.0015 254.98 65.1335 254.384 65.3975 253.864C65.6695 253.344 66.0375 252.944 66.5015 252.664C66.9655 252.384 67.4815 252.244 68.0495 252.244C68.4815 252.244 68.8935 252.34 69.2855 252.532C69.6775 252.716 69.9895 252.964 70.2215 253.276V250.12H71.9255V259H70.2215V258.016C70.0135 258.344 69.7215 258.608 69.3455 258.808C68.9695 259.008 68.5335 259.108 68.0375 259.108C67.4775 259.108 66.9655 258.964 66.5015 258.676C66.0375 258.388 65.6695 257.984 65.3975 257.464C65.1335 256.936 65.0015 256.332 65.0015 255.652ZM70.2335 255.676C70.2335 255.268 70.1535 254.92 69.9935 254.632C69.8335 254.336 69.6175 254.112 69.3455 253.96C69.0735 253.8 68.7815 253.72 68.4695 253.72C68.1575 253.72 67.8695 253.796 67.6055 253.948C67.3415 254.1 67.1255 254.324 66.9575 254.62C66.7975 254.908 66.7175 255.252 66.7175 255.652C66.7175 256.052 66.7975 256.404 66.9575 256.708C67.1255 257.004 67.3415 257.232 67.6055 257.392C67.8775 257.552 68.1655 257.632 68.4695 257.632C68.7815 257.632 69.0735 257.556 69.3455 257.404C69.6175 257.244 69.8335 257.02 69.9935 256.732C70.1535 256.436 70.2335 256.084 70.2335 255.676Z" fill="#666666"/>
<circle cx="98.5" cy="255" r="6.5" fill="#719DEC"/>
<path d="M111.807 250.624V259H110.127V250.624H111.807ZM117.151 252.256C117.943 252.256 118.583 252.508 119.071 253.012C119.559 253.508 119.803 254.204 119.803 255.1V259H118.123V255.328C118.123 254.8 117.991 254.396 117.727 254.116C117.463 253.828 117.103 253.684 116.647 253.684C116.183 253.684 115.815 253.828 115.543 254.116C115.279 254.396 115.147 254.8 115.147 255.328V259H113.467V252.352H115.147V253.18C115.371 252.892 115.655 252.668 115.999 252.508C116.351 252.34 116.735 252.256 117.151 252.256ZM124.172 257.452L125.852 252.352H127.64L125.18 259H123.14L120.692 252.352H122.492L124.172 257.452ZM128.152 255.652C128.152 254.98 128.284 254.384 128.548 253.864C128.82 253.344 129.184 252.944 129.64 252.664C130.104 252.384 130.62 252.244 131.188 252.244C131.684 252.244 132.116 252.344 132.484 252.544C132.86 252.744 133.16 252.996 133.384 253.3V252.352H135.076V259H133.384V258.028C133.168 258.34 132.868 258.6 132.484 258.808C132.108 259.008 131.672 259.108 131.176 259.108C130.616 259.108 130.104 258.964 129.64 258.676C129.184 258.388 128.82 257.984 128.548 257.464C128.284 256.936 128.152 256.332 128.152 255.652ZM133.384 255.676C133.384 255.268 133.304 254.92 133.144 254.632C132.984 254.336 132.768 254.112 132.496 253.96C132.224 253.8 131.932 253.72 131.62 253.72C131.308 253.72 131.02 253.796 130.756 253.948C130.492 254.1 130.276 254.324 130.108 254.62C129.948 254.908 129.868 255.252 129.868 255.652C129.868 256.052 129.948 256.404 130.108 256.708C130.276 257.004 130.492 257.232 130.756 257.392C131.028 257.552 131.316 257.632 131.62 257.632C131.932 257.632 132.224 257.556 132.496 257.404C132.768 257.244 132.984 257.02 133.144 256.732C133.304 256.436 133.384 256.084 133.384 255.676ZM138.397 250.12V259H136.717V250.12H138.397ZM140.909 251.56C140.613 251.56 140.365 251.468 140.165 251.284C139.973 251.092 139.877 250.856 139.877 250.576C139.877 250.296 139.973 250.064 140.165 249.88C140.365 249.688 140.613 249.592 140.909 249.592C141.205 249.592 141.449 249.688 141.641 249.88C141.841 250.064 141.941 250.296 141.941 250.576C141.941 250.856 141.841 251.092 141.641 251.284C141.449 251.468 141.205 251.56 140.909 251.56ZM141.737 252.352V259H140.057V252.352H141.737ZM142.964 255.652C142.964 254.98 143.096 254.384 143.36 253.864C143.632 253.344 144 252.944 144.464 252.664C144.928 252.384 145.444 252.244 146.012 252.244C146.444 252.244 146.856 252.34 147.248 252.532C147.64 252.716 147.952 252.964 148.184 253.276V250.12H149.888V259H148.184V258.016C147.976 258.344 147.684 258.608 147.308 258.808C146.932 259.008 146.496 259.108 146 259.108C145.44 259.108 144.928 258.964 144.464 258.676C144 258.388 143.632 257.984 143.36 257.464C143.096 256.936 142.964 256.332 142.964 255.652ZM148.196 255.676C148.196 255.268 148.116 254.92 147.956 254.632C147.796 254.336 147.58 254.112 147.308 253.96C147.036 253.8 146.744 253.72 146.432 253.72C146.12 253.72 145.832 253.796 145.568 253.948C145.304 254.1 145.088 254.324 144.92 254.62C144.76 254.908 144.68 255.252 144.68 255.652C144.68 256.052 144.76 256.404 144.92 256.708C145.088 257.004 145.304 257.232 145.568 257.392C145.84 257.552 146.128 257.632 146.432 257.632C146.744 257.632 147.036 257.556 147.308 257.404C147.58 257.244 147.796 257.02 147.956 256.732C148.116 256.436 148.196 256.084 148.196 255.676Z" fill="#666666"/>
<circle cx="176.5" cy="255" r="6.5" fill="#FF5E6C"/>
<path d="M187.441 254.8C187.441 253.976 187.625 253.24 187.993 252.592C188.369 251.936 188.877 251.428 189.517 251.068C190.165 250.7 190.889 250.516 191.689 250.516C192.625 250.516 193.445 250.756 194.149 251.236C194.853 251.716 195.345 252.38 195.625 253.228H193.693C193.501 252.828 193.229 252.528 192.877 252.328C192.533 252.128 192.133 252.028 191.677 252.028C191.189 252.028 190.753 252.144 190.369 252.376C189.993 252.6 189.697 252.92 189.481 253.336C189.273 253.752 189.169 254.24 189.169 254.8C189.169 255.352 189.273 255.84 189.481 256.264C189.697 256.68 189.993 257.004 190.369 257.236C190.753 257.46 191.189 257.572 191.677 257.572C192.133 257.572 192.533 257.472 192.877 257.272C193.229 257.064 193.501 256.76 193.693 256.36H195.625C195.345 257.216 194.853 257.884 194.149 258.364C193.453 258.836 192.633 259.072 191.689 259.072C190.889 259.072 190.165 258.892 189.517 258.532C188.877 258.164 188.369 257.656 187.993 257.008C187.625 256.36 187.441 255.624 187.441 254.8ZM196.628 255.652C196.628 254.98 196.76 254.384 197.024 253.864C197.296 253.344 197.66 252.944 198.116 252.664C198.58 252.384 199.096 252.244 199.664 252.244C200.16 252.244 200.592 252.344 200.96 252.544C201.336 252.744 201.636 252.996 201.86 253.3V252.352H203.552V259H201.86V258.028C201.644 258.34 201.344 258.6 200.96 258.808C200.584 259.008 200.148 259.108 199.652 259.108C199.092 259.108 198.58 258.964 198.116 258.676C197.66 258.388 197.296 257.984 197.024 257.464C196.76 256.936 196.628 256.332 196.628 255.652ZM201.86 255.676C201.86 255.268 201.78 254.92 201.62 254.632C201.46 254.336 201.244 254.112 200.972 253.96C200.7 253.8 200.408 253.72 200.096 253.72C199.784 253.72 199.496 253.796 199.232 253.948C198.968 254.1 198.752 254.324 198.584 254.62C198.424 254.908 198.344 255.252 198.344 255.652C198.344 256.052 198.424 256.404 198.584 256.708C198.752 257.004 198.968 257.232 199.232 257.392C199.504 257.552 199.792 257.632 200.096 257.632C200.408 257.632 200.7 257.556 200.972 257.404C201.244 257.244 201.46 257.02 201.62 256.732C201.78 256.436 201.86 256.084 201.86 255.676ZM207.149 253.732V256.948C207.149 257.172 207.201 257.336 207.305 257.44C207.417 257.536 207.601 257.584 207.857 257.584H208.637V259H207.581C206.165 259 205.457 258.312 205.457 256.936V253.732H204.665V252.352H205.457V250.708H207.149V252.352H208.637V253.732H207.149ZM209.414 255.676C209.414 254.988 209.554 254.388 209.834 253.876C210.114 253.356 210.502 252.956 210.998 252.676C211.494 252.388 212.062 252.244 212.702 252.244C213.526 252.244 214.206 252.452 214.742 252.868C215.286 253.276 215.65 253.852 215.834 254.596H214.022C213.926 254.308 213.762 254.084 213.53 253.924C213.306 253.756 213.026 253.672 212.69 253.672C212.21 253.672 211.83 253.848 211.55 254.2C211.27 254.544 211.13 255.036 211.13 255.676C211.13 256.308 211.27 256.8 211.55 257.152C211.83 257.496 212.21 257.668 212.69 257.668C213.37 257.668 213.814 257.364 214.022 256.756H215.834C215.65 257.476 215.286 258.048 214.742 258.472C214.198 258.896 213.518 259.108 212.702 259.108C212.062 259.108 211.494 258.968 210.998 258.688C210.502 258.4 210.114 258 209.834 257.488C209.554 256.968 209.414 256.364 209.414 255.676ZM220.808 252.256C221.312 252.256 221.76 252.368 222.152 252.592C222.544 252.808 222.848 253.132 223.064 253.564C223.288 253.988 223.4 254.5 223.4 255.1V259H221.72V255.328C221.72 254.8 221.588 254.396 221.324 254.116C221.06 253.828 220.7 253.684 220.244 253.684C219.78 253.684 219.412 253.828 219.14 254.116C218.876 254.396 218.744 254.8 218.744 255.328V259H217.064V250.12H218.744V253.18C218.96 252.892 219.248 252.668 219.608 252.508C219.968 252.34 220.368 252.256 220.808 252.256ZM230.11 254.008V255.424H225.022V254.008H230.11ZM231.562 255.652C231.562 254.98 231.694 254.384 231.958 253.864C232.23 253.344 232.594 252.944 233.05 252.664C233.514 252.384 234.03 252.244 234.598 252.244C235.094 252.244 235.526 252.344 235.894 252.544C236.27 252.744 236.57 252.996 236.794 253.3V252.352H238.486V259H236.794V258.028C236.578 258.34 236.278 258.6 235.894 258.808C235.518 259.008 235.082 259.108 234.586 259.108C234.026 259.108 233.514 258.964 233.05 258.676C232.594 258.388 232.23 257.984 231.958 257.464C231.694 256.936 231.562 256.332 231.562 255.652ZM236.794 255.676C236.794 255.268 236.714 254.92 236.554 254.632C236.394 254.336 236.178 254.112 235.906 253.96C235.634 253.8 235.342 253.72 235.03 253.72C234.718 253.72 234.43 253.796 234.166 253.948C233.902 254.1 233.686 254.324 233.518 254.62C233.358 254.908 233.278 255.252 233.278 255.652C233.278 256.052 233.358 256.404 233.518 256.708C233.686 257.004 233.902 257.232 234.166 257.392C234.438 257.552 234.726 257.632 235.03 257.632C235.342 257.632 235.634 257.556 235.906 257.404C236.178 257.244 236.394 257.02 236.554 256.732C236.714 256.436 236.794 256.084 236.794 255.676ZM241.807 250.12V259H240.127V250.12H241.807ZM245.147 250.12V259H243.467V250.12H245.147Z" fill="#666666"/>
</g>
<defs>
<filter id="filter0_d_174_74" x="0" y="0" width="270" height="314" filterUnits="userSpaceOnUse" color-interpolation-filters="sRGB">
<feFlood flood-opacity="0" result="BackgroundImageFix"/>
<feColorMatrix in="SourceAlpha" type="matrix" values="0 0 0 0 0 0 0 0 0 0 0 0 0 0 0 0 0 0 127 0" result="hardAlpha"/>
<feMorphology radius="8" operator="erode" in="SourceAlpha" result="effect1_dropShadow_174_74"/>
<feOffset dy="2"/>
<feGaussianBlur stdDeviation="7.5"/>
<feComposite in2="hardAlpha" operator="out"/>
<feColorMatrix type="matrix" values="0 0 0 0 0.0767133 0 0 0 0 0.0311 0 0 0 0 0.259167 0 0 0 0.28 0"/>
<feBlend mode="normal" in2="BackgroundImageFix" result="effect1_dropShadow_174_74"/>
<feBlend mode="normal" in="SourceGraphic" in2="effect1_dropShadow_174_74" result="shape"/>
</filter>
<filter id="filter1_f_174_74" x="57" y="67.6606" width="86.7053" height="129.55" filterUnits="userSpaceOnUse" color-interpolation-filters="sRGB">
<feFlood flood-opacity="0" result="BackgroundImageFix"/>
<feBlend mode="normal" in="SourceGraphic" in2="BackgroundImageFix" result="shape"/>
<feGaussianBlur stdDeviation="4" result="effect1_foregroundBlur_174_74"/>
</filter>
<filter id="filter2_f_174_74" x="82.0482" y="174.422" width="93.0724" height="48.5776" filterUnits="userSpaceOnUse" color-interpolation-filters="sRGB">
<feFlood flood-opacity="0" result="BackgroundImageFix"/>
<feBlend mode="normal" in="SourceGraphic" in2="BackgroundImageFix" result="shape"/>
<feGaussianBlur stdDeviation="4" result="effect1_foregroundBlur_174_74"/>
</filter>
<filter id="filter3_f_174_74" x="155.55" y="122.203" width="58.4504" height="88.4336" filterUnits="userSpaceOnUse" color-interpolation-filters="sRGB">
<feFlood flood-opacity="0" result="BackgroundImageFix"/>
<feBlend mode="normal" in="SourceGraphic" in2="BackgroundImageFix" result="shape"/>
<feGaussianBlur stdDeviation="4" result="effect1_foregroundBlur_174_74"/>
</filter>
<linearGradient id="paint0_linear_174_74" x1="135" y1="5" x2="135" y2="305" gradientUnits="userSpaceOnUse">
<stop stop-color="#FCFCFC"/>
<stop offset="1" stop-color="#FAF5FF"/>
</linearGradient>
<linearGradient id="paint1_linear_174_74" x1="126.5" y1="81" x2="82.5" y2="186" gradientUnits="userSpaceOnUse">
<stop stop-color="#23DFA1"/>
<stop offset="1" stop-color="#51D9B0"/>
</linearGradient>
<linearGradient id="paint2_linear_174_74" x1="126.5" y1="81" x2="82.5" y2="186" gradientUnits="userSpaceOnUse">
<stop stop-color="#51D9B0"/>
<stop offset="1" stop-color="#21CC93"/>
</linearGradient>
<linearGradient id="paint3_linear_174_74" x1="91.5" y1="188.5" x2="171.5" y2="200.5" gradientUnits="userSpaceOnUse">
<stop stop-color="#719DEC"/>
<stop offset="1" stop-color="#E6E9F5"/>
</linearGradient>
<linearGradient id="paint4_linear_174_74" x1="90.5" y1="188.5" x2="170.5" y2="200.5" gradientUnits="userSpaceOnUse">
<stop stop-color="#719DEC"/>
<stop offset="1" stop-color="#5370F5"/>
</linearGradient>
<linearGradient id="paint5_linear_174_74" x1="198.5" y1="131.5" x2="163.5" y2="201" gradientUnits="userSpaceOnUse">
<stop stop-color="#FFAA70"/>
<stop offset="1" stop-color="#FF476A"/>
</linearGradient>
<linearGradient id="paint6_linear_174_74" x1="197.5" y1="130.5" x2="162.5" y2="200" gradientUnits="userSpaceOnUse">
<stop stop-color="#FF476A"/>
<stop offset="1" stop-color="#FFAA70"/>
</linearGradient>
</defs>
</svg>
